<svg width="100" height="100" viewBox="0 0 100 100" xmlns="http://www.w3.org/2000/svg">
  <!-- Small dots -->
  <circle cx="10" cy="20" r="1" fill="#00FFFF" opacity="0.5" />
  <circle cx="25" cy="50" r="0.8" fill="#00FFFF" opacity="0.4" />
  <circle cx="40" cy="30" r="1.2" fill="#00FFFF" opacity="0.6" />
  <circle cx="60" cy="70" r="0.7" fill="#00FFFF" opacity="0.3" />
  <circle cx="75" cy="40" r="1" fill="#00FFFF" opacity="0.5" />
  <circle cx="90" cy="60" r="0.9" fill="#00FFFF" opacity="0.4" />
  
  <!-- Medium dots -->
  <circle cx="15" cy="80" r="1.5" fill="#00FFFF" opacity="0.3" />
  <circle cx="35" cy="10" r="1.8" fill="#00FFFF" opacity="0.4" />
  <circle cx="55" cy="45" r="1.6" fill="#00FFFF" opacity="0.3" />
  <circle cx="80" cy="25" r="1.7" fill="#00FFFF" opacity="0.4" />
  
  <!-- Large dots -->
  <circle cx="20" cy="65" r="2.2" fill="#00FFFF" opacity="0.2" />
  <circle cx="45" cy="85" r="2" fill="#00FFFF" opacity="0.2" />
  <circle cx="70" cy="15" r="2.5" fill="#00FFFF" opacity="0.2" />
  <circle cx="95" cy="90" r="2.3" fill="#00FFFF" opacity="0.2" />
  
  <!-- Lines connecting some dots -->
  <line x1="10" y1="20" x2="25" y2="50" stroke="#00FFFF" stroke-width="0.2" opacity="0.1" />
  <line x1="40" y1="30" x2="60" y2="70" stroke="#00FFFF" stroke-width="0.2" opacity="0.1" />
  <line x1="75" y1="40" x2="90" y2="60" stroke="#00FFFF" stroke-width="0.2" opacity="0.1" />
  <line x1="15" y1="80" x2="35" y2="10" stroke="#00FFFF" stroke-width="0.2" opacity="0.1" />
  <line x1="55" y1="45" x2="80" y2="25" stroke="#00FFFF" stroke-width="0.2" opacity="0.1" />
  <line x1="20" y1="65" x2="45" y2="85" stroke="#00FFFF" stroke-width="0.2" opacity="0.1" />
  <line x1="70" y1="15" x2="95" y2="90" stroke="#00FFFF" stroke-width="0.2" opacity="0.1" />
</svg>