<?xml version="1.0" encoding="UTF-8"?>
<svg version="1.1" xmlns="http://www.w3.org/2000/svg" width="1024" height="1024">
<path d="M0 0 C337.92 0 675.84 0 1024 0 C1024 337.92 1024 675.84 1024 1024 C686.08 1024 348.16 1024 0 1024 C0 686.08 0 348.16 0 0 Z " fill="#FEFEFE" transform="translate(0,0)"/>
<path d="M0 0 C5.07577316 9.95632428 5.67960977 21.7008839 2.25 32.3125 C0.48460221 37.06015905 -1.59975438 41.54240099 -4 46 C-3.29617188 45.443125 -2.59234375 44.88625 -1.8671875 44.3125 C15.53852251 30.86056746 34.46079643 23.57446934 55.26416016 16.99316406 C58.02756484 16.11625285 60.78518683 15.22254076 63.54296875 14.328125 C65.31998736 13.76199925 67.09732016 13.1968585 68.875 12.6328125 C69.68864014 12.3672757 70.50228027 12.10173889 71.34057617 11.82815552 C76.0845594 10.34761039 80.03004529 9.72085421 85 10 C85.0625 12.6875 85.0625 12.6875 84 16 C81.94594408 17.52338669 79.82512798 18.58605253 77.53125 19.71484375 C75.01604256 20.99185493 72.80599551 22.44261935 70.5 24.0625 C66.22599669 26.97967686 61.79194668 29.07415854 57 31 C57.66902344 31.10957031 58.33804687 31.21914062 59.02734375 31.33203125 C74.70013179 33.91961907 90.26353467 36.81484939 105.80395508 40.09863281 C107.9950528 40.56062133 110.18693841 41.01872308 112.37890625 41.4765625 C113.6532251 41.74549316 114.92754395 42.01442383 116.24047852 42.29150391 C131.50698454 45.16853491 146.48700094 45.51906462 160 37 C160.66 37 161.32 37 162 37 C164.83831435 45.51494306 163.3499476 54.30895988 159.609375 62.2734375 C155.13845814 69.84795198 148.80487303 74.24209817 141 78 C146.31041139 80.71450309 151.64063027 83.38343689 157 86 C157.88816406 86.43441406 158.77632812 86.86882812 159.69140625 87.31640625 C170.45553731 92.09006437 186.71779662 95.54933755 198.21875 92.390625 C200.95902043 91.29002458 202.90831061 90.09168939 205 88 C207.64144881 96.62731266 206.88427284 106.89515364 203 115 C198.33830819 123.6327626 191.01139887 128.64158514 182 132 C182.680625 132.35449219 183.36125 132.70898438 184.0625 133.07421875 C190.63292923 136.68271246 196.31609388 140.71018943 202.0625 145.5 C215.07075192 156.31002006 226.26270626 163.79850503 243.625 163.25 C244.72457031 163.23195313 245.82414062 163.21390625 246.95703125 163.1953125 C249.63896703 163.14867014 252.31899343 163.08324119 255 163 C253.15521201 178.48650972 248.63630815 190.82217531 236.5234375 201.13671875 C232.28834278 204.26387073 227.71242668 206.67461562 223 209 C238.55957734 221.55984691 250.76141281 226.92580771 271 226 C272.67522527 225.71275588 274.34810583 225.40016816 276 225 C275.48237959 235.35240824 272.1429655 244.74535487 264.88671875 252.31640625 C257.36193425 259.03106902 249.54441273 261.36244715 239.5625 261.125 C238.83095703 261.11597656 238.09941406 261.10695313 237.34570312 261.09765625 C235.56365702 261.07436153 233.78178241 261.0385019 232 261 C241.64447912 271.6393251 254.48636038 280.17378045 269 282 C270.62394748 282.0620775 272.25005297 282.08712041 273.875 282.0625 C275.04675781 282.04896484 275.04675781 282.04896484 276.2421875 282.03515625 C276.82226562 282.02355469 277.40234375 282.01195312 278 282 C277.61680469 293.49585938 272.33587074 302.45605873 264.5 310.67578125 C258.59807811 316.16272426 252.26150651 320.52340757 245 324 C245.86625 324.639375 246.7325 325.27875 247.625 325.9375 C255.96426155 332.99833702 259.75172933 342.87350321 261.3828125 353.4921875 C261.9825086 365.36617037 257.49377211 378.25934184 251 388 C250.34 388 249.68 388 249 388 C247.33333333 386.33333333 245.66666667 384.66666667 244 383 C243.01 382.67 242.02 382.34 241 382 C241.04640625 382.69222656 241.0928125 383.38445312 241.140625 384.09765625 C241.62970066 397.3551 238.38647032 409.58044597 230 420 C228.62474808 421.31355838 227.2290922 422.60613436 225.8125 423.875 C221.52581362 427.90711305 220.52640612 431.99616262 219.02734375 437.57421875 C213.77100441 455.10201191 199.90666599 468.44599128 184.17431641 476.99169922 C157.03628336 491.08763351 126.37543855 491.39742661 96.45898438 492.6965332 C79.18599298 493.44775751 62.11499421 494.41036949 45 497 C44.05237793 497.13631836 43.10475586 497.27263672 42.12841797 497.41308594 C14.78235663 501.38186239 -11.80992587 508.26006607 -38 517 C-39.09183594 517.36351562 -40.18367187 517.72703125 -41.30859375 518.1015625 C-73.91578768 529.08919876 -105.20309528 543.66088429 -130 568 C-130.75539063 568.73992188 -131.51078125 569.47984375 -132.2890625 570.2421875 C-133.87350674 571.81400669 -135.43968611 573.40422443 -137 575 C-142.99764417 569.00235583 -144.52438238 556.31828031 -146.25 548.1875 C-146.41290527 547.42445557 -146.57581055 546.66141113 -146.74365234 545.87524414 C-151.08618324 524.42332613 -151.5280871 498.22825183 -146 477 C-145.80132324 476.21592773 -145.60264648 475.43185547 -145.39794922 474.62402344 C-136.27453124 439.53815982 -115.78781878 410.96804791 -93.90234375 382.6875 C-77.46761123 361.44081363 -62.27628785 340.68224338 -61 313 C-61.51981445 313.28496338 -62.03962891 313.56992676 -62.57519531 313.86352539 C-104.3443695 336.74423362 -104.3443695 336.74423362 -123.625 346.4375 C-125.01138672 347.13758179 -125.01138672 347.13758179 -126.42578125 347.85180664 C-127.26753906 348.27067139 -128.10929687 348.68953613 -128.9765625 349.12109375 C-130.07605225 349.66914673 -130.07605225 349.66914673 -131.19775391 350.22827148 C-133 351 -133 351 -135 351 C-134.9175 352.093125 -134.835 353.18625 -134.75 354.3125 C-134.77049702 365.91381296 -142.01992544 377.64486469 -149.7265625 385.8671875 C-160.70945429 396.17072516 -175.05534525 400.79821095 -189.92211914 400.44897461 C-206.8808096 399.60757993 -222.30386274 392.22299029 -234 380 C-234.70511719 379.31421875 -235.41023438 378.6284375 -236.13671875 377.921875 C-247.85975642 365.8638934 -252.50118698 350.14174497 -252.35400391 333.64697266 C-251.8615926 317.11801714 -244.14330576 302.81612404 -236.4375 288.5625 C-235.72496511 287.23542272 -235.01256454 285.90827331 -234.30029297 284.58105469 C-228.82563917 274.40846186 -223.14024356 264.36517694 -217.35839844 254.36425781 C-213.87007636 248.29292226 -210.48751498 242.16260786 -207.11865234 236.02441406 C-206.08925159 234.16151772 -205.04170479 232.31031594 -203.98828125 230.4609375 C-193.53094041 211.66742029 -186.06000737 191.26557718 -179 171 C-179.57355225 171.21148682 -180.14710449 171.42297363 -180.73803711 171.64086914 C-188.58678865 174.41681604 -197.24996805 176.0652975 -205.1875 172.5625 C-210.46465016 169.43905856 -217.23007146 164.53985708 -220 159 C-218.81664062 159.03480469 -217.63328125 159.06960938 -216.4140625 159.10546875 C-206.99983007 159.29761626 -198.61595851 159.30797926 -190 155 C-191.23363281 154.87044922 -191.23363281 154.87044922 -192.4921875 154.73828125 C-201.68315545 153.58145041 -210.14614802 151.86278264 -216.375 144.5 C-221.07706681 137.46025793 -223.78702088 128.46047442 -223 120 C-222.236875 120.495 -221.47375 120.99 -220.6875 121.5 C-213.57257407 124.39420716 -207.06563015 123.71376076 -199.9375 121.0625 C-193.5153848 118.09526788 -188.907671 114.02539624 -184 109 C-183.46713379 108.47744629 -182.93426758 107.95489258 -182.38525391 107.41650391 C-180.67271991 105.73527587 -178.98969683 104.0289295 -177.3125 102.3125 C-176.77044922 101.77818359 -176.22839844 101.24386719 -175.66992188 100.69335938 C-173.94846006 98.95040362 -173.94846006 98.95040362 -172 96 C-172.37455964 92.01607853 -173.44355752 88.30246135 -174.5390625 84.46484375 C-176.23307736 77.77854028 -176.44562553 71.43279415 -176.375 64.5625 C-176.38660156 63.43779297 -176.39820313 62.31308594 -176.41015625 61.15429688 C-176.37996083 52.39259374 -175.98335187 42.47502781 -171 35 C-166.44276143 35.51995339 -166.44276143 35.51995339 -164.515625 37.609375 C-164.09796875 38.31578125 -163.6803125 39.0221875 -163.25 39.75 C-162.7446875 40.56210938 -162.239375 41.37421875 -161.71875 42.2109375 C-160.86796875 43.59152344 -160.86796875 43.59152344 -160 45 C-147.55067491 64.91323359 -147.55067491 64.91323359 -128.35473633 76.57763672 C-127.57767334 76.7170166 -126.80061035 76.85639648 -126 77 C-125.94054199 75.8550708 -125.94054199 75.8550708 -125.87988281 74.68701172 C-122.95126975 20.71801235 -122.95126975 20.71801235 -111 5 C-107.6719085 4.04911671 -105.77100636 4.64295679 -102.671875 6.078125 C-84.85069982 16.02737004 -75.34563089 35.68566484 -68 54 C-68 54.66 -68 55.32 -68 56 C-67.34 56 -66.68 56 -66 56 C-65.89429688 55.27941406 -65.78859375 54.55882812 -65.6796875 53.81640625 C-60.95861012 34.25378101 -37.63864305 19.6495022 -21.76171875 9.890625 C-20.17532622 8.92568936 -18.58811779 7.9620935 -17 7 C-16.28150879 6.56107422 -15.56301758 6.12214844 -14.82275391 5.66992188 C-12.88982172 4.4949933 -10.94808382 3.33709068 -9 2.1875 C-7.906875 1.54167969 -6.81375 0.89585938 -5.6875 0.23046875 C-3 -1 -3 -1 0 0 Z " fill="#020301" transform="translate(509,122)"/>
<path d="M0 0 C2.95094127 2.73667111 4.90179929 5.28331664 6.734375 8.859375 C7.22180176 9.80216309 7.70922852 10.74495117 8.21142578 11.71630859 C8.71915527 12.71742676 9.22688477 13.71854492 9.75 14.75 C10.54833252 16.30001709 10.54833252 16.30001709 11.36279297 17.88134766 C14.66525753 24.31141102 17.87817492 30.78284109 21.05493164 37.27563477 C23.52140742 42.23481862 26.31901175 46.9520921 29.1875 51.6875 C33.33644984 58.55594273 36.55495246 65.32368795 39 73 C39.17958252 73.55655273 39.35916504 74.11310547 39.54418945 74.68652344 C40.1971343 78.00055953 40.14243782 81.28872433 40.1328125 84.65234375 C40.13376923 85.38949112 40.13472595 86.12663849 40.13571167 86.88612366 C40.13639075 88.44190557 40.13455545 89.99769036 40.13037109 91.5534668 C40.12502662 93.92568379 40.13032133 96.2977108 40.13671875 98.66992188 C40.13605777 100.18489625 40.1347762 101.6998705 40.1328125 103.21484375 C40.13483673 103.9201976 40.13686096 104.62555145 40.13894653 105.35227966 C40.12159145 109.02692771 39.87270557 112.42641367 39 116 C43.66264183 111.10422608 46.86239878 105.9790169 49.58007812 99.80029297 C50.9058493 97.17810084 52.2424613 95.3246728 54.9777832 94.15234375 C62.37932007 92.44435543 70.13242306 92.61520275 77.6875 92.625 C78.36508362 92.62521149 79.04266724 92.62542297 79.74078369 92.62564087 C92.46299037 92.66502562 104.61341689 94.05336897 117 97 C117.7640918 97.17660156 118.52818359 97.35320312 119.31542969 97.53515625 C157.47619109 106.64918153 189.38912881 134.15124679 209.65234375 167.04296875 C223.73705241 190.52950598 232.54624849 215.19602273 238 242 C238.21825439 243.0530835 238.21825439 243.0530835 238.44091797 244.12744141 C244.05396002 272.53554668 240.79268863 308.77453187 224.4140625 333.3828125 C222.70188314 335.68983352 220.90414791 337.84880696 219 340 C218.28199219 340.81210937 217.56398438 341.62421875 216.82421875 342.4609375 C210.35317688 349.3450246 203.13498781 354.34279508 195 359 C193.87851562 359.64453125 192.75703125 360.2890625 191.6015625 360.953125 C181.54450971 366.43284014 170.77210913 370.1286442 160.02441406 373.99243164 C136.78882393 382.35124982 117.4412367 390.71794902 105 413 C104.36591333 414.67648672 103.75600976 416.36265581 103.1875 418.0625 C101.56732122 421.95523043 99.66224721 423.00268105 95.8125 424.625 C93.54797674 425.43453972 91.2764449 426.22461702 89 427 C69.66563757 434.26795348 51.60497157 443.69833982 35 456 C34.4337793 456.41604492 33.86755859 456.83208984 33.28417969 457.26074219 C24.498922 463.75061327 16.19845551 470.78970897 8 478 C7.45923828 478.47083008 6.91847656 478.94166016 6.36132812 479.42675781 C-0.13769746 485.10246742 -5.89083499 490.94583238 -11.16015625 497.78515625 C-13 500 -13 500 -16 502 C-10.50624336 468.42704273 14.90408081 437.15312404 36.34765625 412.12109375 C38.78551219 409.26888131 41.14732338 406.36052247 43.5 403.4375 C47.14321691 398.95504205 50.98005445 394.70862555 54.91186523 390.48242188 C58.71762528 386.36866203 62.24922339 382.07034837 65.76171875 377.703125 C68.04815705 374.94184175 70.43608218 372.31461778 72.875 369.6875 C78.13891206 363.95912511 82.91026183 357.91844357 87.64746094 351.75537109 C88.95721306 350.05553034 90.2776215 348.36458393 91.6015625 346.67578125 C119.29278846 311.23782701 137.33054664 273.54093574 132.609375 227.36328125 C128.63960119 198.17809233 114.40066291 168.12136818 91.0390625 149.66015625 C82.35854718 143.34418808 72.74096412 137.76344187 62 136 C62.90878906 136.74830078 62.90878906 136.74830078 63.8359375 137.51171875 C83.15964485 154.07064951 98.91928878 180.75713891 103 206 C103.37424006 211.34002671 103.25273617 216.65743819 103 222 C100.17162948 218.5766369 98.38384696 214.7972627 96.5 210.8125 C92.09223987 201.70766729 86.64127179 193.37894781 81 185 C81.2165625 185.85078125 81.433125 186.7015625 81.65625 187.578125 C86.63638047 209.25091501 85.01328519 230.25544017 73.10302734 249.33837891 C64.60001685 262.14747351 53.73537471 267.73496918 39 271 C35.65034119 271.60949449 32.40034872 271.87315772 29 272 C27.26556641 272.11214844 27.26556641 272.11214844 25.49609375 272.2265625 C11.20534107 272.76583619 -1.59761663 268.56264006 -15 264 C-7.50012703 272.06017476 1.22910617 278.89248731 11 284 C11 284.33 11 284.66 11 285 C7.58340542 285.05928421 4.16698321 285.09615195 0.75 285.125 C-0.2603833 285.13668213 -1.2707666 285.14836426 -2.31176758 285.16040039 C-7.71361962 285.17386701 -12.44192267 284.86557882 -17.6875 283.4375 C-21.0628945 282.78527285 -22.38432646 282.6442999 -25.38671875 284.37890625 C-27.14440585 285.87721723 -28.85856362 287.42731878 -30.5390625 289.01171875 C-34.99332952 293.07787194 -40.15439731 296.12220962 -45.25 299.3125 C-46.1972998 299.910625 -47.14459961 300.50875 -48.12060547 301.125 C-53.0195129 304.19923065 -57.9524815 307.17645719 -63 310 C-62.54109375 310.3403125 -62.0821875 310.680625 -61.609375 311.03125 C-55.91546025 315.52896417 -53.27157272 320.18528185 -51 327 C-50.07576197 337.666616 -51.4007364 346.94253233 -58.25 355.4375 C-62.87196538 360.27766975 -68.32308605 363.16538576 -75 364 C-74.62488281 363.56171875 -74.24976563 363.1234375 -73.86328125 362.671875 C-69.235812 356.93707683 -66.5861891 350.86598876 -64 344 C-64.89460938 344.94101562 -65.78921875 345.88203125 -66.7109375 346.8515625 C-83.7021348 364.45800709 -83.7021348 364.45800709 -94 365 C-93.154375 364.05125 -92.30875 363.1025 -91.4375 362.125 C-84.99399634 354.55237771 -79.91547073 346.39213275 -75.28393555 337.62133789 C-72.99147634 333.38120116 -70.45532937 330.41274608 -67 327 C-67.13955313 323.65102735 -67.13955313 323.65102735 -69 321 C-74.3666755 320.44482667 -77.8200024 320.60963992 -82.2265625 324.12890625 C-85.28443362 327.35516234 -87.51356553 331.11873102 -89.890625 334.859375 C-94.66560144 341.96878437 -101.16853224 350.08426612 -109 354 C-113.4881019 354.37400849 -116.00170761 354.48895954 -120.0625 352.5 C-128.75873141 345.09895199 -134.71721437 336.51378321 -136 325 C-136.21153769 322.04139015 -136.31484624 319.090335 -136.375 316.125 C-136.40110352 315.3942627 -136.42720703 314.66352539 -136.45410156 313.91064453 C-136.49575942 300.41052218 -128.1457718 287.96522124 -122.125 276.3125 C-121.42053741 274.94165756 -121.42053741 274.94165756 -120.70184326 273.54312134 C-114.75221878 261.97378839 -108.62423654 250.58312507 -101.96728516 239.40356445 C-88.81141563 217.30224971 -78.02320596 194.63394379 -68 171 C-61.60895602 156.04191965 -55.1934524 141.11460933 -44 129 C-43.67 129 -43.34 129 -43 129 C-43.33 132.96 -43.66 136.92 -44 141 C-43.33613281 139.90300781 -42.67226563 138.80601562 -41.98828125 137.67578125 C-41.09672053 136.22112956 -40.20477289 134.76671496 -39.3125 133.3125 C-38.87744141 132.59126953 -38.44238281 131.87003906 -37.99414062 131.12695312 C-35.36324828 126.85906109 -32.70462365 123.38422377 -29 120 C-29.0825 121.27875 -29.165 122.5575 -29.25 123.875 C-29.19703653 129.48030054 -28.16224654 134.30430224 -25 139 C-21.86774931 141.46947037 -18.60463033 143.30774988 -15 145 C-15.15855469 144.16597656 -15.31710937 143.33195313 -15.48046875 142.47265625 C-17.71588938 127.53063411 -15.33812963 114.7762344 -7.46484375 101.828125 C-6 100 -6 100 -3 99 C-3.40992188 98.02160156 -3.81984375 97.04320312 -4.2421875 96.03515625 C-14.55181873 71.11756082 -9.94398295 48.75956932 -4.15771484 23.03295898 C-2.44815041 15.39075287 -1.09396768 7.75446487 0 0 Z " fill="#FDFDFD" transform="translate(407,142)"/>
<path d="M0 0 C8.77016339 5.19249356 14.9246007 12.29735616 18.7734375 21.64453125 C20.77977553 32.77058759 19.79150319 43.16462789 13.953125 52.99609375 C8.28907142 60.87307989 0.13017841 66.79321265 -9.5390625 68.45703125 C-22.19017695 69.58996687 -32.69113699 68.40860661 -42.9765625 60.20703125 C-49.26896276 54.20243309 -53.14007652 46.15207552 -53.875 37.50390625 C-54.15261774 24.5279028 -52.13768784 16.30803592 -42.91015625 6.65625 C-31.62094224 -3.81463548 -14.1759225 -6.17197856 0 0 Z " fill="#040504" transform="translate(661.5390625,737.54296875)"/>
<path d="M0 0 C5.61927468 -0.07486735 11.2382509 -0.12893696 16.85791016 -0.16479492 C18.76453721 -0.17976338 20.67113055 -0.20014546 22.57763672 -0.22631836 C38.12976997 -0.43427819 51.57136584 -0.30878083 63.74609375 10.55859375 C69.61905266 16.66588518 72.16846194 24.50918959 72.5 32.875 C72.1115064 42.84633586 69.27019252 52.89208857 62 60 C49.81424806 70.42452998 35.41752014 69.38876525 20.3125 69.1875 C18.33920292 69.17242677 16.3658947 69.15874303 14.39257812 69.14648438 C9.59477371 69.11368595 4.79751163 69.06204913 0 69 C0 68.01 0 67.02 0 66 C0.94875 65.566875 1.8975 65.13375 2.875 64.6875 C6.20041937 63.20697799 6.20041937 63.20697799 8 60 C8.30984778 57.66560902 8.30984778 57.66560902 8.2746582 55.04125977 C8.28419022 54.03333878 8.29372223 53.02541779 8.30354309 51.98695374 C8.30217598 50.35565773 8.30217598 50.35565773 8.30078125 48.69140625 C8.30506638 47.5731395 8.3093515 46.45487274 8.31376648 45.30271912 C8.31951261 42.93643878 8.32000797 40.57014077 8.31567383 38.20385742 C8.31251548 34.58026024 8.33596488 30.95748047 8.36132812 27.33398438 C8.36360121 25.03645937 8.36430457 22.73893216 8.36328125 20.44140625 C8.372491 19.35589981 8.38170074 18.27039337 8.39118958 17.1519928 C8.38496078 16.14091965 8.37873199 15.1298465 8.37231445 14.08813477 C8.37294388 13.2000563 8.3735733 12.31197784 8.3742218 11.39698792 C7.91997041 8.48738964 7.01715092 7.12037862 5 5 C2.40144267 4.1957792 2.40144267 4.1957792 0 4 C0 2.68 0 1.36 0 0 Z " fill="#040504" transform="translate(434,736)"/>
<path d="M0 0 C4.82957198 4.82957198 4.2811267 13.27139163 4.375 19.75 C4.3313338 34.39925835 -0.66986655 46.3922709 -10.625 57.1875 C-33.75363651 78.89828907 -66.45616215 81.35335226 -96.37109375 83.8984375 C-167.0945126 88.76451627 -167.0945126 88.76451627 -230 118 C-230.66 117.67 -231.32 117.34 -232 117 C-198.13276269 83.29558595 -144.07431456 74.38895981 -98.54296875 69.8203125 C-97.51826981 69.71632645 -96.49357086 69.61234039 -95.43782043 69.50520325 C-90.28504195 68.9842843 -85.1316782 68.48205031 -79.97387695 68.01342773 C-56.2473227 65.75264411 -30.95653658 60.30972181 -15 41 C-6.00539648 28.90985111 -1.14262559 14.94433991 0 0 Z " fill="#EDB51A" transform="translate(693,489)"/>
<path d="M0 0 C7.59 0 15.18 0 23 0 C27.87604109 9.60338461 32.45485469 19.27755742 36.8125 29.125 C37.6712699 31.05874378 38.53095834 32.9920736 39.39152527 34.92501831 C40.15961192 36.65124078 40.92522459 38.37856345 41.69067383 40.10595703 C42.7443052 42.43483009 43.83402869 44.72599384 45 47 C46.98025853 42.89635945 48.95915351 38.79206257 50.9375 34.6875 C51.23112427 34.07851868 51.52474854 33.46953735 51.82727051 32.84210205 C56.05371653 24.07443776 60.25173215 15.29407529 64.37084961 6.4753418 C66.89281429 1.10718571 66.89281429 1.10718571 68 0 C69.63472882 -0.08700342 71.27314055 -0.10701063 72.91015625 -0.09765625 C73.89951172 -0.09443359 74.88886719 -0.09121094 75.90820312 -0.08789062 C76.94912109 -0.07951172 77.99003906 -0.07113281 79.0625 -0.0625 C80.62967773 -0.05573242 80.62967773 -0.05573242 82.22851562 -0.04882812 C84.8190666 -0.03699913 87.40950559 -0.02051689 90 0 C89.65234375 1.93359375 89.65234375 1.93359375 89 4 C87.35448038 4.71727778 85.68577711 5.38325228 84 6 C81.83866774 9.24199839 81.7387397 10.19163341 81.69360352 13.94287109 C81.67761612 14.94756439 81.66162872 15.95225769 81.64515686 16.98739624 C81.63711281 18.61398666 81.63711281 18.61398666 81.62890625 20.2734375 C81.61987778 21.38933258 81.6108493 22.50522766 81.60154724 23.65493774 C81.5870313 26.01700146 81.57815468 28.3791055 81.57446289 30.74121094 C81.56256846 34.35420532 81.51339457 37.96549129 81.46289062 41.578125 C81.45342642 43.87238749 81.44619138 46.16666048 81.44140625 48.4609375 C81.42187393 49.54128265 81.40234161 50.62162781 81.38221741 51.73471069 C81.38984797 57.88653887 81.38984797 57.88653887 84.34741211 63.15869141 C86.92240398 65.13035573 86.92240398 65.13035573 90 66 C90 66.99 90 67.98 90 69 C79.11 69 68.22 69 57 69 C57 68.01 57 67.02 57 66 C58.7578125 65.34895833 60.515625 64.69791667 62.2734375 64.046875 C64.53278451 62.67695419 64.99781136 61.4244616 66 59 C66.28495663 56.98421315 66.28495663 56.98421315 66.22705078 54.87402344 C66.22689972 54.07349548 66.22674866 53.27296753 66.22659302 52.44818115 C66.21627045 51.59387512 66.20594788 50.73956909 66.1953125 49.859375 C66.1924826 48.97719299 66.18965271 48.09501099 66.18673706 47.18609619 C66.17555961 44.37392501 66.15045951 41.5620746 66.125 38.75 C66.11496705 36.84115044 66.10584175 34.93229588 66.09765625 33.0234375 C66.07562824 28.34883511 66.04111511 23.67447191 66 19 C57.93109666 35.63423179 49.86506439 52.26808796 42 69 C41.01 69 40.02 69 39 69 C36.82795068 64.41576366 34.65934774 59.82991729 32.49365234 55.24267578 C31.75952567 53.68886512 31.02452836 52.13546545 30.28857422 50.58251953 C25.65441663 40.80210781 21.1765111 30.9855673 17 21 C16.92570085 26.32020022 16.87132753 31.64009669 16.83520508 36.96069336 C16.82014245 38.76966617 16.79968823 40.5786026 16.77368164 42.38745117 C16.7371868 44.99146515 16.72024843 47.5949952 16.70703125 50.19921875 C16.69154739 51.00461594 16.67606354 51.81001312 16.66011047 52.63981628 C16.6587423 57.23120012 16.94944733 60.31230939 20 64 C23.07561246 65.35980881 23.07561246 65.35980881 26 66 C26 66.99 26 67.98 26 69 C17.42 69 8.84 69 0 69 C0 68.01 0 67.02 0 66 C1.3921875 65.4121875 1.3921875 65.4121875 2.8125 64.8125 C6.50068094 62.71529908 7.33209254 61.86224725 9 58 C9.42834596 54.3822256 9.39641448 50.79165464 9.36328125 47.15234375 C9.36377975 46.10349503 9.36427826 45.0546463 9.36479187 43.97401428 C9.36245524 41.76089581 9.35275102 39.54777448 9.33618164 37.3347168 C9.31256072 33.94621045 9.31562764 30.55848981 9.32226562 27.16992188 C9.31668954 25.01822447 9.3095801 22.86653039 9.30078125 20.71484375 C9.30169266 19.70123276 9.30260406 18.68762177 9.30354309 17.64329529 C9.28924507 16.22646202 9.28924507 16.22646202 9.2746582 14.78100586 C9.27005081 13.95225449 9.26544342 13.12350311 9.26069641 12.26963806 C8.97216832 9.75769581 8.32364535 8.14383402 7 6 C5.30049572 4.89506665 5.30049572 4.89506665 3.375 4.25 C2.26125 3.8375 1.1475 3.425 0 3 C0 2.01 0 1.02 0 0 Z " fill="#060706" transform="translate(511,736)"/>
<path d="M0 0 C5.46525341 8.19788012 6.19681304 19.31083566 4.49609375 28.81640625 C1.06233443 42.92425169 -7.13385067 53.20880222 -19.39697266 60.82714844 C-47.00252141 77.17263406 -81.24304523 76.79472937 -112.3984375 78.70703125 C-142.56821305 80.56471555 -170.81952494 84.19066915 -199.99926758 92.21557617 C-202.65646869 92.91019721 -205.30118816 93.49520656 -208 94 C-185.50414625 68.70189458 -137.08783949 67.80942946 -106.43139648 65.84594727 C-57.70540525 63.20183718 -57.70540525 63.20183718 -16 40 C-13.06374137 36.48914139 -10.472522 32.8492672 -8 29 C-7.5771875 28.35417969 -7.154375 27.70835937 -6.71875 27.04296875 C-2.12988759 19.0646057 -1.46961381 8.92756054 0 0 Z " fill="#ECB41A" transform="translate(713,521)"/>
<path d="M0 0 C10.89 0 21.78 0 33 0 C32.67 1.32 32.34 2.64 32 4 C30.35448038 4.71727778 28.68577711 5.38325228 27 6 C24.84250216 9.23624676 24.71639512 10.34394066 24.5859375 14.10546875 C24.55032715 14.99129639 24.5147168 15.87712402 24.47802734 16.78979492 C24.44402832 17.9110376 24.4100293 19.03228027 24.375 20.1875 C24.25125 23.755625 24.1275 27.32375 24 31 C33.57 31 43.14 31 53 31 C52.87625 27.6175 52.7525 24.235 52.625 20.75 C52.59100098 19.69006836 52.55700195 18.63013672 52.52197266 17.53808594 C52.4863623 16.69536133 52.45075195 15.85263672 52.4140625 14.984375 C52.3826416 14.12553711 52.3512207 13.26669922 52.31884766 12.38183594 C51.97224377 9.79265717 51.46858972 8.16077983 50 6 C46.45411499 4.70079254 46.45411499 4.70079254 43 4 C43 2.68 43 1.36 43 0 C54.22 0 65.44 0 77 0 C76.67 1.32 76.34 2.64 76 4 C75.030625 4.309375 74.06125 4.61875 73.0625 4.9375 C69.84827138 5.65982733 69.84827138 5.65982733 68.82476807 8.25950623 C68.00848837 10.97179531 67.74662185 13.089485 67.74121094 15.91040039 C67.73175446 17.3319619 67.73175446 17.3319619 67.72210693 18.78224182 C67.7261554 19.79382858 67.73020386 20.80541534 67.734375 21.84765625 C67.73246155 22.89650497 67.7305481 23.9453537 67.72857666 25.02598572 C67.72721793 27.23908733 67.73089258 29.45219699 67.73925781 31.6652832 C67.74997227 35.05372992 67.73934625 38.44164775 67.7265625 41.83007812 C67.72788394 43.981772 67.73044601 46.13346555 67.734375 48.28515625 C67.73032654 49.29876724 67.72627808 50.31237823 67.72210693 51.35670471 C67.72841125 52.30126022 67.73471558 53.24581573 67.74121094 54.21899414 C67.74280212 55.04774551 67.74439331 55.87649689 67.74603271 56.73036194 C68.02753932 59.24611157 68.67400804 60.85431638 70 63 C71.69950428 64.10493335 71.69950428 64.10493335 73.625 64.75 C74.73875 65.1625 75.8525 65.575 77 66 C77 66.99 77 67.98 77 69 C65.78 69 54.56 69 43 69 C43 68.01 43 67.02 43 66 C44.7578125 65.34895833 46.515625 64.69791667 48.2734375 64.046875 C50.55896938 62.66107739 51.00235309 61.47076809 52 59 C52.36324391 56.39249078 52.36324391 56.39249078 52.4140625 53.578125 C52.44967285 52.65418945 52.4852832 51.73025391 52.52197266 50.77832031 C52.55597168 49.61397461 52.5899707 48.44962891 52.625 47.25 C52.74875 43.5375 52.8725 39.825 53 36 C43.43 36 33.86 36 24 36 C24.061875 39.856875 24.12375 43.71375 24.1875 47.6875 C24.19418701 48.89494873 24.20087402 50.10239746 24.20776367 51.34643555 C24.3594883 57.71686983 24.3594883 57.71686983 27.36328125 63.20703125 C29.93167026 65.12831064 29.93167026 65.12831064 33 66 C33 66.99 33 67.98 33 69 C22.11 69 11.22 69 0 69 C0 68.01 0 67.02 0 66 C1.7015625 65.5978125 1.7015625 65.5978125 3.4375 65.1875 C5.2009375 64.5996875 5.2009375 64.5996875 7 64 C7.9935047 61.01948589 8.12666004 59.06015342 8.12939453 55.94946289 C8.13254669 54.92152115 8.13569885 53.89357941 8.13894653 52.83448792 C8.1369223 51.72508347 8.13489807 50.61567902 8.1328125 49.47265625 C8.13376923 48.33219345 8.13472595 47.19173065 8.13571167 46.01670837 C8.13639258 43.60334213 8.13454452 41.18997406 8.13037109 38.77661133 C8.12502654 35.08085005 8.13031661 31.38521058 8.13671875 27.68945312 C8.13605786 25.3463539 8.13477646 23.00325475 8.1328125 20.66015625 C8.13584885 18.99908592 8.13584885 18.99908592 8.13894653 17.30445862 C8.13579437 16.27336472 8.13264221 15.24227081 8.12939453 14.17993164 C8.12859894 13.27408829 8.12780334 12.36824493 8.12698364 11.43495178 C8.00781198 9.1497973 7.64254245 7.18954341 7 5 C4.69 4.34 2.38 3.68 0 3 C0 2.01 0 1.02 0 0 Z " fill="#070807" transform="translate(280,736)"/>
<path d="M0 0 C3.20253007 0.93474751 6.40580984 1.86683397 9.60969543 2.79692078 C13.03580442 3.79291858 16.4586396 4.79776116 19.87524414 5.82592773 C36.37161001 10.75825823 50.96202754 12.49496871 68 9 C62.63713726 16.2063468 56.77366514 19.89691448 48 22 C36.50036402 23.20183214 26.80313652 20.95824239 15.89453125 17.58544922 C-4.8104955 11.18716905 -25.92438738 15.12385808 -44.8671875 24.71484375 C-52.42788525 28.75774149 -59.7331518 33.69162407 -65.765625 39.80078125 C-68 42 -68 42 -70 42 C-70.226875 42.515625 -70.45375 43.03125 -70.6875 43.5625 C-72.4975553 46.92403127 -74.73996404 49.92911144 -77 53 C-78 51 -78 51 -77.21484375 48.53125 C-69.47351231 30.16038395 -58.90370989 17.5526015 -40.26953125 9.875 C-34.30309377 7.90199683 -28.25113845 7.34464452 -22 7 C-44.83119456 6.38540154 -63.72005188 10.10362524 -81 26 C-81.82886719 26.73734375 -82.65773438 27.4746875 -83.51171875 28.234375 C-91.31183162 35.54474112 -97.42621767 44.32835611 -102 54 C-103.79130083 50.41739835 -101.59611416 46.25491497 -100.44799805 42.58740234 C-94.49523533 24.87621707 -81.28032254 11.68938773 -65 3 C-44.58083381 -6.62282545 -21.31988453 -6.39249746 0 0 Z " fill="#EDB71B" transform="translate(590,168)"/>
<path d="M0 0 C1.74796875 0.12181641 1.74796875 0.12181641 3.53125 0.24609375 C6.0283602 0.45525891 8.51253167 0.6991399 11 1 C11 1.66 11 2.32 11 3 C6.52941176 7 6.52941176 7 4 7 C3.68369896 10.47931145 3.64481964 12.42283191 5.5 15.4375 C8.44164937 17.27603086 10.43806088 17.42002652 13.84375 16.81640625 C17.24555021 15.52840581 19.55769715 13.29727756 22.140625 10.7890625 C23.99082437 9.00882865 25.91961129 7.50045734 28 6 C25.83445703 15.27004357 22.11326369 22.59115754 14 28 C10.3723302 29.70641659 7.50128928 30.27247915 3.5 30.25 C2.5821875 30.25515625 1.664375 30.2603125 0.71875 30.265625 C-2.1778282 29.98262598 -4.36375653 29.20350245 -7 28 C-7.24363281 28.59554688 -7.48726563 29.19109375 -7.73828125 29.8046875 C-10.54068594 34.68069814 -16.31993747 37.31553008 -21.375 39.375 C-26.27365062 40.21959493 -31.04298471 40.1613495 -36 40 C-36.54527344 40.98097656 -37.09054687 41.96195312 -37.65234375 42.97265625 C-53.2196294 70.88568848 -53.2196294 70.88568848 -62 81 C-62.7321875 81.86496094 -63.464375 82.72992188 -64.21875 83.62109375 C-68.71914514 88.80733678 -73.29058729 93.17298222 -79 97 C-77.32384353 92.11602685 -74.61392706 88.02347854 -71.875 83.6875 C-54.93754699 57.08144147 -54.93754699 57.08144147 -50 27 C-50.33257812 26.2059375 -50.66515625 25.411875 -51.0078125 24.59375 C-52.14768103 21.61393621 -52.20154327 19.36404569 -52.125 16.1875 C-52.10695313 15.21167969 -52.08890625 14.23585938 -52.0703125 13.23046875 C-52.04710937 12.49441406 -52.02390625 11.75835937 -52 11 C-51.34 10.67 -50.68 10.34 -50 10 C-49.01 12.31 -48.02 14.62 -47 17 C-41.2407816 16.6245528 -38.79352301 15.4416541 -34.8125 11.3125 C-23.80288237 0.90041929 -14.56063771 -1.05073095 0 0 Z " fill="#030403" transform="translate(405,304)"/>
<path d="M0 0 C0.80284424 0.15678223 1.60568848 0.31356445 2.43286133 0.47509766 C13.83402314 2.89919546 23.7728699 7.64234054 34.0625 13 C42.82151268 17.48959709 51.6028777 21.65301366 60.875 25 C61.73134033 25.3103418 62.58768066 25.62068359 63.4699707 25.94042969 C71.96814533 28.88071932 80.40178605 30.46635269 89.375 30.875 C90.45201172 30.93300781 90.45201172 30.93300781 91.55078125 30.9921875 C93.28352095 31.08460028 95.01672299 31.16828223 96.75 31.25 C93.85384987 35.39929201 91.45584236 37.18825069 86.75 39 C85.71875 39.40734375 84.6875 39.8146875 83.625 40.234375 C75.82878807 42.98847161 69.22347432 42.64647624 61.25 40.5625 C60.57001953 40.38605957 59.89003906 40.20961914 59.18945312 40.02783203 C52.88417167 38.35887209 46.67176813 36.41057355 40.46875 34.3984375 C14.57392895 26.40150747 -12.57593378 30.18604603 -38.25 37.25 C-35.04702656 33.8512009 -31.37623891 31.72719826 -27.375 29.375 C-26.61993164 28.93099854 -25.86486328 28.48699707 -25.08691406 28.02954102 C-7.80000806 18.08902278 7.45519613 16.38813684 26.75 21.25 C24.15314486 19.7978313 21.54864823 18.36357164 18.9375 16.9375 C18.21884766 16.53337891 17.50019531 16.12925781 16.75976562 15.71289062 C-0.29640772 6.47099934 -22.23903337 6.56353978 -40.63696289 11.83569336 C-50.27411891 14.95899307 -61.41522574 19.54121369 -68.25 27.25 C-68.91 26.92 -69.57 26.59 -70.25 26.25 C-51.48032932 4.01978884 -28.89348906 -5.67284097 0 0 Z " fill="#EBB41A" transform="translate(606.25,197.75)"/>
<path d="M0 0 C0.99 0.495 0.99 0.495 2 1 C2.7726945 3.56860556 3.42051598 6.07419583 4 8.6875 C4.17370117 9.45916504 4.34740234 10.23083008 4.52636719 11.02587891 C11.77374988 44.00622922 7.4196711 76.40516509 -9 106 C-9.56589844 107.05574219 -10.13179687 108.11148438 -10.71484375 109.19921875 C-20.52408668 126.85585603 -34.80590303 142.95886568 -51 155 C-52.22783203 155.91652344 -52.22783203 155.91652344 -53.48046875 156.8515625 C-59.72144283 161.35617655 -66.30408165 165.21485028 -73 169 C-71.65386451 165.96820785 -70.18049103 163.99806915 -67.76171875 161.7421875 C-64.04787772 158.13105543 -60.91627603 154.26385377 -57.8125 150.125 C-57.25643066 149.38886475 -56.70036133 148.65272949 -56.12744141 147.89428711 C-22.31601681 102.88097389 -0.76594363 57.16184455 0 0 Z " fill="#040604" transform="translate(557,377)"/>
<path d="M0 0 C5.79253677 2.93505769 9.52893229 7.935793 12.0390625 13.82421875 C15.87221199 25.86102462 15.16430031 38.87861744 10 50.38671875 C7.01831767 55.22776478 3.47822514 58.59576053 -2 60.38671875 C-6.98017899 61.03772254 -10.760677 60.99468852 -15.3125 58.76171875 C-23.486745 51.53796736 -27.39919312 42.55538155 -28.203125 31.625 C-28.36786819 21.34227922 -26.44900865 12.59972094 -20 4.38671875 C-14.32076994 -0.88685202 -7.4951522 -2.29831816 0 0 Z " fill="#FCFCFC" transform="translate(651,740.61328125)"/>
<path d="M0 0 C17.3800449 -1.62898763 17.3800449 -1.62898763 23.015625 1.875 C25.26453362 4.46367179 27.12345502 7.13207276 29 10 C30.4724561 11.67052099 31.97291762 13.31676351 33.5 14.9375 C36.56633535 18.3380553 39.50102311 21.81065499 42.375 25.375 C46.1952918 30.10488509 50.21468864 34.59535865 54.37060547 39.02880859 C56.47170437 41.27949536 58.2857728 43.4286592 60 46 C60.1238722 40.96469037 60.21446514 35.93027303 60.2746582 30.89379883 C60.29975714 29.18172755 60.33384429 27.46976296 60.37719727 25.75805664 C60.43805739 23.29286355 60.46625432 20.82909015 60.48828125 18.36328125 C60.52699089 17.22080681 60.52699089 17.22080681 60.56648254 16.05525208 C60.56859607 12.02374936 60.18005477 10.22724798 57.64526367 7.02807617 C54.95110275 4.96251136 53.34476168 4.28669386 50 4 C50 2.68 50 1.36 50 0 C58.58 0 67.16 0 76 0 C76 1.32 76 2.64 76 4 C74.865625 4.45375 73.73125 4.9075 72.5625 5.375 C68.95278308 6.57095806 68.95278308 6.57095806 68 9 C67.87983328 10.97034488 67.82264667 12.94464936 67.79467773 14.91845703 C67.77473251 16.15959259 67.75478729 17.40072815 67.73423767 18.67947388 C67.7172534 20.0389188 67.70037459 21.39836505 67.68359375 22.7578125 C67.66302419 24.14501567 67.64202772 25.53221257 67.62062073 26.91940308 C67.56540019 30.57227505 67.51599089 34.22520359 67.46777344 37.87817383 C67.41755825 41.60503174 67.36187229 45.33180741 67.30664062 49.05859375 C67.19905929 56.37232621 67.09761432 63.68612701 67 71 C59.93824458 67.63725932 55.06818144 61.16733493 50.03515625 55.3203125 C47.46952564 52.39519814 44.83202771 49.54121114 42.1875 46.6875 C34.34720657 38.22111032 26.58261309 29.69893848 19 21 C18.92546364 25.85633035 18.87121671 30.71232268 18.83520508 35.5690918 C18.82018194 37.21889044 18.7997574 38.86864958 18.77368164 40.51831055 C18.73701101 42.89902536 18.72020897 45.27920908 18.70703125 47.66015625 C18.69154739 48.38960953 18.67606354 49.11906281 18.66011047 49.87062073 C18.65846376 54.95916109 19.64072847 58.4720468 22 63 C23.72786264 64.41768371 23.72786264 64.41768371 25.6875 64.9375 C26.780625 65.288125 27.87375 65.63875 29 66 C29 66.99 29 67.98 29 69 C20.09 69 11.18 69 2 69 C2 68.01 2 67.02 2 66 C2.83144531 65.70609375 2.83144531 65.70609375 3.6796875 65.40625 C4.40414062 65.1071875 5.12859375 64.808125 5.875 64.5 C6.59429688 64.2215625 7.31359375 63.943125 8.0546875 63.65625 C11.46082579 60.75624471 11.80220612 56.00407464 12.22610474 51.70907593 C12.36033318 49.23054184 12.43370107 46.75914307 12.4765625 44.27734375 C12.49270599 43.37303116 12.50884949 42.46871857 12.52548218 41.53700256 C12.55297746 39.63696766 12.57450403 37.73683784 12.59033203 35.83666992 C12.61346896 33.90180319 12.65452812 31.9670689 12.71337891 30.03295898 C13.45788027 19.21463177 13.45788027 19.21463177 10.31542969 9.20361328 C8.26552814 7.3653605 6.48587584 6.16215698 4 5 C3.25314941 4.62222412 2.50629883 4.24444824 1.73681641 3.85522461 C1.16366699 3.57300049 0.59051758 3.29077637 0 3 C0 2.01 0 1.02 0 0 Z " fill="#040504" transform="translate(684,736)"/>
<path d="M0 0 C0.87454834 0.33104736 1.74909668 0.66209473 2.65014648 1.00317383 C10.32238939 4.02976977 17.12962638 7.86881108 24.0625 12.3125 C25.56006836 13.25125977 25.56006836 13.25125977 27.08789062 14.20898438 C32.07131359 17.36202616 36.91847852 20.62740683 41.6640625 24.12890625 C46.38967556 27.60931074 51.21941479 30.71366118 56.3125 33.625 C57.12211182 34.09156006 57.93172363 34.55812012 58.76586914 35.03881836 C64.75834699 38.43296065 70.82805329 41.31353273 77.21484375 43.87890625 C79.54981395 44.81878907 81.77146836 45.8347196 84 47 C77.24675703 49.35578243 71.35267162 50.20350133 64.25 50.25 C63.50878906 50.270625 62.76757812 50.29125 62.00390625 50.3125 C47.12332702 50.41088399 33.14357383 46.09279437 19.25 41.25 C17.6716324 40.70990515 16.09285141 40.171017 14.51367188 39.63330078 C11.41931755 38.57837465 8.327041 37.51769325 5.23632812 36.45214844 C-1.15708093 34.25300218 -7.58338045 32.15311894 -14.01074219 30.05566406 C-17.48176574 28.90761369 -20.75772881 27.6847271 -24 26 C-18.55144271 23.74480245 -13.55390373 23.61492902 -7.75 23.625 C-6.78143066 23.62661133 -5.81286133 23.62822266 -4.81494141 23.62988281 C8.71399003 23.85606721 21.35359834 27.33818919 34 32 C7.64438527 10.16589028 -17.87284402 2.33229477 -52 3 C-38.58691017 -8.25280853 -15.18326573 -5.86168113 0 0 Z " fill="#EDB61B" transform="translate(651,248)"/>
<path d="M0 0 C3 1 3 1 4.54296875 3.73022461 C5.10219602 4.94925545 5.64950501 6.17379472 6.1875 7.40234375 C6.48657257 8.0635321 6.78564514 8.72472046 7.09378052 9.40594482 C8.07289763 11.57863637 9.03641839 13.75787971 10 15.9375 C10.67228351 17.4356309 11.3453032 18.93343165 12.01904297 20.4309082 C15.18906757 27.50492576 18.28470569 34.6065536 21.2578125 41.765625 C21.99064453 43.52724976 21.99064453 43.52724976 22.73828125 45.32446289 C23.64018585 47.51174033 24.53141515 49.70346066 25.41015625 51.90014648 C29.17658733 61.2298456 29.17658733 61.2298456 36.8125 67.375 C37.534375 67.58125 38.25625 67.7875 39 68 C39 68.99 39 69.98 39 71 C28.44 71 17.88 71 7 71 C7 70.01 7 69.02 7 68 C9.97 67.505 9.97 67.505 13 67 C12.88325099 65.64509704 12.75606577 64.29109304 12.625 62.9375 C12.52058594 61.80634766 12.52058594 61.80634766 12.4140625 60.65234375 C11.90250577 57.37548507 10.91112591 54.18894068 10 51 C1.75 51 -6.5 51 -15 51 C-16.56453195 56.47586183 -17.22137642 59.57627762 -17 65 C-14.69 65.99 -12.38 66.98 -10 68 C-10 68.99 -10 69.98 -10 71 C-17.92 71 -25.84 71 -34 71 C-34 70.01 -34 69.02 -34 68 C-32.61917236 67.10450439 -32.61917236 67.10450439 -31.21044922 66.19091797 C-27.55315903 63.69506077 -26.49488385 61.91516574 -24.6328125 57.9453125 C-24.34632843 57.34139679 -24.05984436 56.73748108 -23.76467896 56.11526489 C-19.88352576 47.81475349 -16.38990198 39.33495975 -12.875 30.875 C-12.17882816 29.20945029 -11.48221533 27.54408483 -10.78515625 25.87890625 C-9.14532706 21.95863951 -7.51064013 18.03626251 -5.87878418 14.1126709 C-4.5900887 11.01453884 -3.29882825 7.91747836 -2.0078125 4.8203125 C-1.33849315 3.21356187 -0.66920012 1.60680029 0 0 Z " fill="#040504" transform="translate(392,734)"/>
<path d="M0 0 C1.72384451 -0.03068822 3.44785107 -0.05233608 5.171875 -0.0703125 C6.1319043 -0.08336426 7.09193359 -0.09641602 8.08105469 -0.10986328 C15.15751302 0.1564805 21.34991023 2.29944361 26.53125 7.1875 C33.69397858 16.02661186 33.7077706 27.20175271 33 38 C31.93827949 45.46126521 28.89680685 51.21601468 23 56 C17.18066271 59.26102486 9.52669896 60.35883732 3 59 C0.02542995 55.91681404 -0.36956405 53.70997597 -0.34057617 49.49707031 C-0.34034958 48.39623108 -0.34012299 47.29539185 -0.33988953 46.16119385 C-0.32440567 44.97878113 -0.30892181 43.79636841 -0.29296875 42.578125 C-0.28872391 41.36300232 -0.28447906 40.14787964 -0.28010559 38.89593506 C-0.26330876 35.01373161 -0.22565338 31.13204664 -0.1875 27.25 C-0.17245452 24.61849708 -0.15876588 21.98698602 -0.14648438 19.35546875 C-0.11340185 12.90346883 -0.06319179 6.45177146 0 0 Z " fill="#FAFAFA" transform="translate(457,741)"/>
<path d="M0 0 C0.75474609 -0.00386719 1.50949219 -0.00773438 2.28710938 -0.01171875 C5.85121687 -0.00543838 9.00546533 0.21582517 12.4375 1.125 C13.76940927 1.19003463 15.10420989 1.21093674 16.4375 1.1875 C17.4275 1.17396484 17.4275 1.17396484 18.4375 1.16015625 C19.4275 1.14275391 19.4275 1.14275391 20.4375 1.125 C21.7575 1.125 23.0775 1.125 24.4375 1.125 C24.4375 8.385 24.4375 15.645 24.4375 23.125 C21.4375 22.125 21.4375 22.125 20.2265625 19.98046875 C19.65035156 18.65982422 19.65035156 18.65982422 19.0625 17.3125 C16.63493784 12.21752672 14.32995654 9.47021403 9.14453125 7.05859375 C3.71208817 5.1850672 -2.51867093 5.00726605 -7.9453125 7 C-13.83215689 10.40228269 -17.48955833 14.98173426 -19.671875 21.375 C-22.42882358 32.98320454 -21.12401055 45.55539745 -15.5 56.12109375 C-12.33233292 60.53163021 -7.67316079 62.76267024 -2.5625 64.125 C6.06732516 65.13559795 13.15615927 64.19639661 20.3125 59.0625 C21.71715404 57.78178602 23.09338668 56.46911332 24.4375 55.125 C25.0975 56.115 25.7575 57.105 26.4375 58.125 C20.72354789 65.04265268 15.77100631 70.4205411 6.4296875 71.31787109 C-6.71768225 71.8181746 -16.86080894 71.0219864 -27.5 62.4375 C-34.05282037 56.15820933 -37.17619421 48.66627156 -37.80078125 39.70703125 C-38.03541008 27.79035664 -35.65325723 19.12548352 -27.5625 10.125 C-19.57040256 2.00399776 -11.13587037 -0.05735212 0 0 Z " fill="#040504" transform="translate(247.5625,734.875)"/>
<path d="M0 0 C19.47 0 38.94 0 59 0 C59.66396147 6.63961468 60.10551806 12.45788013 60 19 C59.01 19 58.02 19 57 19 C56.78085937 18.38511719 56.56171875 17.77023437 56.3359375 17.13671875 C54.82166985 13.27718291 53.75222886 10.58710545 50.4375 8 C47.27174738 7.07905378 44.55467894 6.70814785 41.28515625 6.4375 C39.8002771 6.31181641 39.8002771 6.31181641 38.28540039 6.18359375 C37.1541272 6.09271484 37.1541272 6.09271484 36 6 C36.0924696 13.15355422 36.19980149 20.30677571 36.31738281 27.45996094 C36.35562459 29.89252689 36.39048579 32.32514847 36.421875 34.7578125 C36.46762927 38.25801447 36.52560767 41.75783512 36.5859375 45.2578125 C36.59748871 46.34240753 36.60903992 47.42700256 36.62094116 48.54446411 C36.74220052 55.97267863 36.74220052 55.97267863 39 63 C41.1285848 64.34944636 41.1285848 64.34944636 43.625 64.875 C44.44226563 65.09929687 45.25953125 65.32359375 46.1015625 65.5546875 C46.72804688 65.70164062 47.35453125 65.84859375 48 66 C48 66.99 48 67.98 48 69 C36.12 69 24.24 69 12 69 C12 68.01 12 67.02 12 66 C13.11375 65.566875 14.2275 65.13375 15.375 64.6875 C19.17512334 63.30088881 19.17512334 63.30088881 21 60 C21.3280304 57.51562053 21.3280304 57.51562053 21.31884766 54.70239258 C21.33871735 53.62149857 21.35858704 52.54060455 21.37905884 51.42695618 C21.39061005 50.26125595 21.40216125 49.09555573 21.4140625 47.89453125 C21.43342865 46.70018967 21.4527948 45.50584808 21.4727478 44.27531433 C21.53260616 40.45444924 21.57895454 36.63355413 21.625 32.8125 C21.66317397 30.22459612 21.70222535 27.63670501 21.7421875 25.04882812 C21.83831291 18.69933209 21.92334218 12.34975928 22 6 C20.06325941 6.12603559 18.12716658 6.26205461 16.19140625 6.40234375 C15.11318604 6.47702881 14.03496582 6.55171387 12.92407227 6.62866211 C9.0833539 7.11640801 7.41638125 7.96003649 5 11 C3.76671807 13.64346905 2.88499096 16.2052917 2 19 C1.01 19 0.02 19 -1 19 C-1.02757191 17.33343119 -1.04664803 15.66672149 -1.0625 14 C-1.07410156 13.071875 -1.08570313 12.14375 -1.09765625 11.1875 C-0.98291006 7.44218433 -0.46476721 3.71813765 0 0 Z " fill="#060706" transform="translate(765,736)"/>
<path d="M0 0 C4.05533906 0.23854936 6.93693412 -0.18738682 11 -1 C11 6.26 11 13.52 11 21 C8 20 8 20 6.89453125 17.890625 C6.53746094 17.01921875 6.18039062 16.1478125 5.8125 15.25 C3.28664465 9.88351706 0.35432941 7.40832808 -5 5 C-10.24110896 3.25296368 -14.54754427 3.50764212 -19.6875 5.25 C-26.9403644 9.08170195 -30.14718166 13.35926667 -33 21 C-33.64289025 24.88519112 -33.6588553 28.63276642 -33.5625 32.5625 C-33.57345703 33.53896484 -33.58441406 34.51542969 -33.59570312 35.52148438 C-33.51625678 43.43963688 -31.39709401 49.14752748 -27.25 55.8125 C-21.87959107 61.03373091 -14.73093689 63.43517907 -7.2890625 63.3515625 C-0.93131969 62.37511736 4.78007552 58.74741503 9 54 C9.66 54 10.32 54 11 54 C10.49922787 58.10492083 9.57136404 59.93883082 6.4375 62.625 C5.79683594 63.19476562 5.15617188 63.76453125 4.49609375 64.3515625 C-1.56805516 68.3563682 -7.56274178 69.56146281 -14.75 69.5 C-15.9263501 69.49141968 -15.9263501 69.49141968 -17.12646484 69.48266602 C-26.79487359 69.18827219 -35.1812605 65.87101038 -42.24609375 59.16015625 C-49.46841465 50.26495924 -52.01180212 40.23100348 -51 29 C-48.67425092 18.00172877 -43.25544208 9.6670429 -34.05078125 3.21484375 C-23.31453149 -3.14510611 -11.73803898 -3.23807972 0 0 Z " fill="#050605" transform="translate(596,830)"/>
<path d="M0 0 C21.69700943 -0.62850279 40.08847446 13.65208518 55.76391602 27.05981445 C74.05077796 42.69745076 92.22313284 55.61019507 117 57 C113.61287666 62.54256547 109.09317426 64.46851669 103 66 C88.83825924 67.73516378 76.32187801 62.26508429 65.24951172 53.63574219 C57.39210285 47.20023065 50.02825731 40.19406445 42.63012695 33.24316406 C29.46878057 20.90729787 16.15133907 9.30521053 0 1 C0 0.67 0 0.34 0 0 Z " fill="#EDB61B" transform="translate(652,303)"/>
<path d="M0 0 C11.22 0 22.44 0 34 0 C33.67 0.99 33.34 1.98 33 3 C29.5 4.5 29.5 4.5 26 6 C25.02815114 8.91554657 24.85727572 10.84463573 24.82299805 13.8828125 C24.81016281 14.87394043 24.79732758 15.86506836 24.78410339 16.88623047 C24.77671646 17.95502441 24.76932953 19.02381836 24.76171875 20.125 C24.753647 21.22344238 24.74557526 22.32188477 24.73725891 23.45361328 C24.72342676 25.77700219 24.71270072 28.10041136 24.70483398 30.42382812 C24.68756755 33.98606367 24.64366662 37.54738395 24.59960938 41.109375 C24.58948716 43.3645765 24.58096959 45.61978589 24.57421875 47.875 C24.55671066 48.94379395 24.53920258 50.01258789 24.52116394 51.11376953 C24.52555229 52.60046143 24.52555229 52.60046143 24.5300293 54.1171875 C24.52416306 54.98972168 24.51829681 55.86225586 24.51225281 56.76123047 C24.81594539 59.15223327 24.81594539 59.15223327 26.84480286 60.77807617 C31.88378898 63.63501074 38.95209627 62.73858733 44.41796875 61.4140625 C49.60241072 59.22797285 52.01149706 55.6113738 54.7734375 50.828125 C55.17820312 50.22484375 55.58296875 49.6215625 56 49 C56.66 49 57.32 49 58 49 C57.67 55.27 57.34 61.54 57 68 C38.19 68 19.38 68 0 68 C0 67.01 0 66.02 0 65 C1.7015625 64.319375 1.7015625 64.319375 3.4375 63.625 C7.04721692 62.42904194 7.04721692 62.42904194 8 60 C8.11052822 58.35698563 8.15913538 56.70961923 8.17700195 55.06298828 C8.18983719 54.03497101 8.20267242 53.00695374 8.21589661 51.94778442 C8.22328354 50.83321869 8.23067047 49.71865295 8.23828125 48.5703125 C8.246353 47.42843475 8.25442474 46.28655701 8.26274109 45.1100769 C8.27658877 42.69075035 8.28730785 40.2714042 8.29516602 37.85205078 C8.31239728 34.14708628 8.35628085 30.44300962 8.40039062 26.73828125 C8.41051559 24.39063158 8.4190323 22.04297431 8.42578125 19.6953125 C8.45204338 18.02953659 8.45204338 18.02953659 8.47883606 16.33010864 C8.47591049 15.29578705 8.47298492 14.26146545 8.4699707 13.19580078 C8.47583694 12.28694122 8.48170319 11.37808167 8.48774719 10.44168091 C7.84580593 7.22809864 6.5039701 6.04247576 4 4 C1.8618034 3.2127322 1.8618034 3.2127322 0 3 C0 2.01 0 1.02 0 0 Z " fill="#060706" transform="translate(422,830)"/>
<path d="M0 0 C11.22 0 22.44 0 34 0 C34 0.99 34 1.98 34 3 C32.6078125 3.37125 32.6078125 3.37125 31.1875 3.75 C27.69850579 5.11823303 26.86857213 5.85514916 25 9 C24.55695204 11.35431188 24.55695204 11.35431188 24.62768555 13.90454102 C24.62145676 14.87557266 24.61522797 15.84660431 24.60881042 16.84706116 C24.61802017 17.88882004 24.62722992 18.93057892 24.63671875 20.00390625 C24.63622025 21.07873764 24.63572174 22.15356903 24.63520813 23.26097107 C24.63754715 25.53134003 24.64726552 27.80171166 24.66381836 30.07202148 C24.68743423 33.55280657 24.68437486 37.03282691 24.67773438 40.51367188 C24.68331037 42.71875458 24.69041976 44.92383405 24.69921875 47.12890625 C24.69830734 48.17268936 24.69739594 49.21647247 24.69645691 50.29188538 C24.71075493 51.74370461 24.71075493 51.74370461 24.7253418 53.22485352 C24.73225288 54.50248314 24.73225288 54.50248314 24.73930359 55.80592346 C24.86663289 58.29032383 24.86663289 58.29032383 27 61 C33.94303715 63.31434572 41.4453641 62.71476232 47.9921875 59.48828125 C51.13266917 57.16041449 52.90172752 54.19637873 54.80859375 50.828125 C55.20175781 50.22484375 55.59492187 49.6215625 56 49 C56.66 49 57.32 49 58 49 C58.02779013 50.47905232 58.04673956 51.95827058 58.0625 53.4375 C58.07410156 54.26121094 58.08570313 55.08492187 58.09765625 55.93359375 C57.96909904 59.97029023 57.44600456 63.98595897 57 68 C38.19 68 19.38 68 0 68 C0 67.01 0 66.02 0 65 C1.7578125 64.38151042 3.515625 63.76302083 5.2734375 63.14453125 C7.73644424 61.51181412 8.07912355 59.77335054 9 57 C9.29734675 54.58841981 9.29734675 54.58841981 9.25878906 52.08959961 C9.26509338 51.14189194 9.27139771 50.19418427 9.27789307 49.21775818 C9.2738446 48.20617142 9.26979614 47.19458466 9.265625 46.15234375 C9.26753845 45.10349503 9.2694519 44.0546463 9.27142334 42.97401428 C9.27278207 40.76091267 9.26910742 38.54780301 9.26074219 36.3347168 C9.25002773 32.94627008 9.26065375 29.55835225 9.2734375 26.16992188 C9.27211606 24.018228 9.26955399 21.86653445 9.265625 19.71484375 C9.26967346 18.70123276 9.27372192 17.68762177 9.27789307 16.64329529 C9.27158875 15.69873978 9.26528442 14.75418427 9.25878906 13.78100586 C9.25719788 12.95225449 9.25560669 12.12350311 9.25396729 11.26963806 C8.96685296 8.70377371 8.45270621 7.13552794 7 5 C3.45411499 3.70079254 3.45411499 3.70079254 0 3 C0 2.01 0 1.02 0 0 Z " fill="#040604" transform="translate(484,830)"/>
<path d="M0 0 C-0.68964844 0.29132813 -1.37929688 0.58265625 -2.08984375 0.8828125 C-13.58253594 5.89608564 -22.55770954 12.91573778 -32 21 C-31.28457031 20.54109375 -30.56914062 20.0821875 -29.83203125 19.609375 C-18.10344165 12.38711284 -7.80982247 9.18632797 6 10 C3.83186228 12.16813772 1.90989041 13.16343846 -0.8125 14.5625 C-9.90706586 19.46596697 -18.08114072 25.24256113 -25.8125 32.0625 C-36.13513111 40.82854388 -49.08929251 46.9747544 -62.625 48.375 C-69.89281317 47.5674652 -75.31703694 45.74040633 -80 40 C-80 39.67 -80 39.34 -80 39 C-79.02160156 38.84144531 -78.04320312 38.68289063 -77.03515625 38.51953125 C-62.13577735 35.94273229 -52.32584195 29.77467831 -42.5625 17.9375 C-34.3554869 8.26632493 -21.72863938 0.46691759 -9 -0.625 C-7.948125 -0.72039062 -6.89625 -0.81578125 -5.8125 -0.9140625 C-3 -1 -3 -1 0 0 Z " fill="#EAB51B" transform="translate(381,219)"/>
<path d="M0 0 C2.64042627 3.16257798 4.93721764 6.40012626 7.09423828 9.90966797 C11.43161971 16.96299792 16.28968895 22.9841557 22 29 C23.17324565 30.34847065 24.34028586 31.70237443 25.5 33.0625 C28.006631 35.95032373 30.63830697 38.64209365 33.375 41.3125 C38.33688719 46.22384165 42.70832033 51.49961198 47 57 C47.69222656 57.87527344 48.38445313 58.75054687 49.09765625 59.65234375 C59.091423 72.76555215 65.27918577 86.22227354 64 103 C63.25512092 106.44883321 62.27309818 109.71116304 61 113 C60.67 113 60.34 113 60 113 C59.85304688 112.12859375 59.70609375 111.2571875 59.5546875 110.359375 C56.25466167 92.8350999 46.72015381 80.75990453 35.6875 67.25 C0 23.50841012 0 23.50841012 0 0 Z " fill="#EDB51B" transform="translate(671,414)"/>
<path d="M0 0 C12.57110308 1.91762589 22.53399924 8.84080996 32 17 C32.63550781 17.51433594 33.27101563 18.02867187 33.92578125 18.55859375 C37.67918051 21.62955678 40.84522212 24.97343682 43.984375 28.6640625 C46.42997986 31.49830999 48.96113958 34.24967511 51.5 37 C54.49435692 40.24543186 57.45687507 43.50608553 60.3125 46.875 C72.80087466 61.12188087 85.27639641 73.95962722 105 76 C105 76.99 105 77.98 105 79 C98.34623132 82.32688434 86.94088069 80.33283939 80.125 78.375 C61.48549206 71.74914785 50.25199427 57.43238689 39 42 C28.48057401 27.60342363 18.1101849 14.85705483 3.73828125 4.14453125 C1 2 1 2 0 0 Z " fill="#EEB61B" transform="translate(666,339)"/>
<path d="M0 0 C3.35614114 3.20265385 5.01123173 5.79853541 6.75 10.125 C7.26413936 11.37821469 7.77984456 12.6307878 8.296875 13.8828125 C8.56951172 14.54829102 8.84214844 15.21376953 9.12304688 15.89941406 C10.68039813 19.62977324 12.3462086 23.31164871 14 27 C16.50315095 32.61461121 18.99630635 38.23313024 21.4375 43.875 C21.91058594 44.96554688 22.38367188 46.05609375 22.87109375 47.1796875 C26.4308904 56.07302031 26.56835924 68.32060394 23 77.29296875 C21.48033969 79.88707639 19.52433492 81.43081883 17 83 C16.979375 82.05125 16.95875 81.1025 16.9375 80.125 C16.28585184 75.38138468 13.54662516 72.23196221 10.7734375 68.45703125 C5.40883552 61.02457608 3.30695828 52.79460152 1 44 C0.73027122 43.03951752 0.73027122 43.03951752 0.45509338 42.05963135 C-0.01592407 39.92793191 -0.12042609 38.0546452 -0.11352539 35.87402344 C-0.11344986 35.07349548 -0.11337433 34.27296753 -0.11329651 33.44818115 C-0.10813522 32.59387512 -0.10297394 31.73956909 -0.09765625 30.859375 C-0.0962413 29.97719299 -0.09482635 29.09501099 -0.09336853 28.18609619 C-0.08778001 25.37402935 -0.07522961 22.5620427 -0.0625 19.75 C-0.05748352 17.84114698 -0.05292087 15.93229272 -0.04882812 14.0234375 C-0.03781434 9.34892753 -0.02055758 4.67447735 0 0 Z " fill="#030403" transform="translate(410,169)"/>
<path d="M0 0 C0.66 0 1.32 0 2 0 C-0.86067491 14.3221948 -6.45927066 25.41583148 -14.1875 37.6875 C-20.21214483 47.40238716 -23.48278702 56.8825868 -25.65722656 68.03393555 C-26.80414756 73.80414756 -26.80414756 73.80414756 -29 76 C-29.11800816 71.91691764 -29.18784785 67.83428424 -29.25 63.75 C-29.28351563 62.61046875 -29.31703125 61.4709375 -29.3515625 60.296875 C-29.56180254 41.7957511 -20.1596403 27.04444527 -9 13 C-24.41488491 25.10563439 -37.01554544 38.01020805 -39.6328125 58.40234375 C-39.80288785 59.91339784 -39.9668962 61.42514645 -40.125 62.9375 C-40.21136719 63.71673828 -40.29773438 64.49597656 -40.38671875 65.29882812 C-40.59651323 67.1986337 -40.79901994 69.09924174 -41 71 C-45.43426628 64.34860058 -45.81419117 55.79150032 -45 48 C-42.18298331 34.16794199 -35.34062402 23.38621451 -24 15 C-20.52051174 12.76857811 -16.92285648 10.76386457 -13.2890625 8.796875 C-10.5295458 7.28930056 -7.88775307 5.70734562 -5.25 4 C-2 2 -2 2 0 2 C0 1.34 0 0.68 0 0 Z " fill="#EBBE1C" transform="translate(499,141)"/>
<path d="M0 0 C0.66 0 1.32 0 2 0 C3.2265625 1.28515625 3.2265625 1.28515625 4.625 3.0625 C7.47839469 6.51295538 10.59321227 9.35249964 13.9921875 12.25390625 C18.38747774 16.07626956 22.35462862 20.20097563 26.0625 24.6875 C38.84291113 39.41213474 56.70021275 52.54754371 76.55078125 54.31640625 C77.79214844 54.39761719 79.03351563 54.47882813 80.3125 54.5625 C81.56675781 54.64628906 82.82101562 54.73007812 84.11328125 54.81640625 C85.54220703 54.90728516 85.54220703 54.90728516 87 55 C84.27803063 57.20967128 81.90271733 58.57141325 78.5625 59.625 C77.82128906 59.86476563 77.08007812 60.10453125 76.31640625 60.3515625 C63.50509388 63.93786579 52.76942971 60.52411331 41.296875 54.60546875 C20.24743596 42.44972545 9.03842861 21.63735014 0 0 Z " fill="#EDB71B" transform="translate(672,371)"/>
<path d="M0 0 C6.84161589 10.26242383 4.91263118 27.07085747 2.8125 38.8125 C-0.4292403 53.18170235 -8.00668164 68.01142939 -20.3125 76.6171875 C-29.57612377 82.43590118 -42.12041705 88.70313312 -53.3828125 86.54296875 C-53.91648437 86.36378906 -54.45015625 86.18460938 -55 86 C-53.99582031 85.47792969 -52.99164062 84.95585938 -51.95703125 84.41796875 C-29.41010217 72.40587402 -12.14444423 54.39234501 -4.54125977 29.52856445 C-1.92434257 19.92226338 -1.04236655 9.87587134 0 0 Z " fill="#EEB81B" transform="translate(670,457)"/>
<path d="M0 0 C0 5.76805991 -5.47980078 10.61968738 -9 15 C-9.54914063 15.69222656 -10.09828125 16.38445313 -10.6640625 17.09765625 C-20.57435041 28.2530829 -36.31010393 30.89450706 -50.09130859 34.27050781 C-66.08752839 38.28231785 -81.87006848 43.31284009 -96 52 C-96.33 52.66 -96.66 53.32 -97 54 C-97.66 53.67 -98.32 53.34 -99 53 C-88.1686966 34.90680001 -71.45485937 29.9797837 -52 25 C-49.33647055 24.34383067 -46.67033854 23.6993588 -44.00341797 23.05712891 C-26.60042028 18.85457818 -13.03787976 12.48307637 0 0 Z " fill="#EDBA1B" transform="translate(622,502)"/>
<path d="M0 0 C2.31985458 1.15146067 4.62601795 2.32429234 6.92578125 3.515625 C13.10909932 6.68216851 19.26114851 9.57728477 25.75 12.0625 C39.48601765 17.38709655 50.68200931 24.73725543 57.09375 38.31640625 C58.17722359 41.5247957 58.42036439 44.43601247 58.625 47.8125 C58.69976563 48.97394531 58.77453125 50.13539063 58.8515625 51.33203125 C58.90054688 52.21246094 58.94953125 53.09289062 59 54 C55.94433539 51.03693129 53.02864172 47.98279839 50.1875 44.8125 C49.58292969 44.13832031 48.97835937 43.46414063 48.35546875 42.76953125 C47 41 47 41 47 39 C46.42636719 38.75121094 45.85273437 38.50242187 45.26171875 38.24609375 C42.66915497 36.81772096 40.92790458 35.13297563 38.8125 33.0625 C34.34731212 28.94129696 29.64779551 25.71511834 24.5 22.5 C17.69845647 18.23565813 11.7223365 13.66720801 6 8 C5.04287109 7.09894531 5.04287109 7.09894531 4.06640625 6.1796875 C2.6614486 4.83637926 1.32133086 3.42564645 0 2 C0 1.34 0 0.68 0 0 Z " fill="#EDB51B" transform="translate(701,435)"/>
<path d="M0 0 C3.12465186 1.6748134 5.39254192 3.78508385 7 7 C7.77624527 13.58699559 7.50323588 18.69744263 3.56640625 24.1484375 C0.06515783 28.28707029 -3.47955493 31.98636995 -8 35 C-11.1875 34.625 -11.1875 34.625 -14 34 C-13.8637903 27.73435398 -11.4380082 24.38780955 -7.59375 19.52734375 C-5.77809859 16.64811222 -5.35097357 14.35862205 -5 11 C-5.66 11 -6.32 11 -7 11 C-8.94479125 12.9623119 -10.79386351 14.93648578 -12.625 17 C-13.140625 17.57234375 -13.65625 18.1446875 -14.1875 18.734375 C-15.46323273 20.15185582 -16.73225197 21.57537345 -18 23 C-21.09910865 18.35133702 -21.67003274 13.52420608 -21 8 C-15.90062346 0.72045523 -8.50195674 -1.21456525 0 0 Z " fill="#040504" transform="translate(304,436)"/>
<path d="M0 0 C-0.89754054 5.52048909 -4.8777852 8.54773056 -9 12 C-15.37297737 16.58986453 -21.51134412 17.89839933 -29.3203125 17.625 C-37.53428552 16.22984535 -45.37884748 12.1969779 -51 6 C-49.783125 6.165 -48.56625 6.33 -47.3125 6.5 C-45.54266797 6.6769832 -43.77169818 6.84279298 -42 7 C-41.12601563 7.09152344 -40.25203125 7.18304688 -39.3515625 7.27734375 C-25.55006837 8.03587091 -13.20680255 0 0 0 Z " fill="#EBB21A" transform="translate(748,301)"/>
<path d="M0 0 C0.66 0 1.32 0 2 0 C3.34466186 3.24542723 4.6737175 6.49702334 6 9.75 C6.3815625 10.67039062 6.763125 11.59078125 7.15625 12.5390625 C7.5171875 13.42851563 7.878125 14.31796875 8.25 15.234375 C8.58515625 16.05131836 8.9203125 16.86826172 9.265625 17.70996094 C10 20 10 20 10 24 C3.73 24 -2.54 24 -9 24 C-8.28371422 19.7022853 -7.8530841 17.20199375 -6.15234375 13.4765625 C-5.79462891 12.68378906 -5.43691406 11.89101563 -5.06835938 11.07421875 C-4.50858398 9.86185547 -4.50858398 9.86185547 -3.9375 8.625 C-3.56044922 7.79355469 -3.18339844 6.96210937 -2.79492188 6.10546875 C-1.86956644 4.06734412 -0.9378163 2.0324133 0 0 Z " fill="#F1F2F1" transform="translate(389,756)"/>
<path d="M0 0 C-0.29779275 5.95585501 -3.11786377 9.71226745 -7 14 C-10 16 -10 16 -13 16 C-13.33 16.66 -13.66 17.32 -14 18 C-19.28 17.34 -24.56 16.68 -30 16 C-27.46991139 14.7349557 -24.94107608 13.48660023 -22.390625 12.265625 C-12.39998771 7.44699916 -12.39998771 7.44699916 -3.3828125 1.03125 C-2 0 -2 0 0 0 Z " fill="#F0C21C" transform="translate(592,138)"/>
<path d="M0 0 C0.875 2.0625 0.875 2.0625 1 5 C-1.52095708 9.06493426 -4.52372059 12.20423233 -9 14 C-12.25 14.125 -12.25 14.125 -15 14 C-15.75 11.8125 -15.75 11.8125 -16 9 C-12.25736512 2.8620788 -7.27326566 -0.69269197 0 0 Z " fill="#F6F6F6" transform="translate(389,320)"/>
<path d="M0 0 C0.33 0.66 0.66 1.32 1 2 C0.01 2.66 -0.98 3.32 -2 4 C-2 4.99 -2 5.98 -2 7 C-3.52880859 8.79345703 -3.52880859 8.79345703 -5.6484375 10.7578125 C-6.40640625 11.46550781 -7.164375 12.17320312 -7.9453125 12.90234375 C-9.14800781 14.00255859 -9.14800781 14.00255859 -10.375 15.125 C-11.56609375 16.23681641 -11.56609375 16.23681641 -12.78125 17.37109375 C-18.68015253 22.84007626 -18.68015253 22.84007626 -21 24 C-19.84826645 21.53199953 -18.95216435 19.95216435 -17 18 C-17.99 17.34 -18.98 16.68 -20 16 C-21.32 16.99 -22.64 17.98 -24 19 C-24.66 18.67 -25.32 18.34 -26 18 C-18.16748233 10.20357689 -9.83779215 4.91889608 0 0 Z " fill="#F1C31D" transform="translate(491,147)"/>
<path d="M0 0 C0 0.99 0 1.98 0 3 C1.32 3.66 2.64 4.32 4 5 C2.51846172 8.3183434 0.59800099 10.80041356 -1.75 13.5625 C-5.93418045 18.68583044 -9.0397783 24.10198252 -12 30 C-13.60808626 26.78382748 -12.02033052 23.82913085 -11 20.5625 C-10.77795898 19.84763428 -10.55591797 19.13276855 -10.32714844 18.39624023 C-8.13971424 11.76027915 -5.0092194 5.0092194 0 0 Z " fill="#EDC01C" transform="translate(500,192)"/>
<path d="M0 0 C2.82613703 3.44024219 5.39131533 6.95122977 7.8125 10.6875 C8.43769531 11.64011719 9.06289063 12.59273438 9.70703125 13.57421875 C10.13371094 14.37472656 10.56039062 15.17523438 11 16 C10.67 16.66 10.34 17.32 10 18 C8.68 16.35 7.36 14.7 6 13 C6.48775118 18.83777197 8.19103398 23.01992283 11 28.125 C11.39791748 28.86202148 11.79583496 29.59904297 12.20581055 30.35839844 C17.0347219 39.13065208 22.68715094 47.22597464 29 55 C28.67 55.66 28.34 56.32 28 57 C14.96194291 42.17421877 0 20.46660732 0 0 Z " fill="#F0D71D" transform="translate(671,414)"/>
<path d="M0 0 C7.33333333 3.66666667 14.66666667 7.33333333 22 11 C20.02 11.99 20.02 11.99 18 13 C18 13.99 18 14.98 18 16 C20.94236782 18.21168225 20.94236782 18.21168225 24 20 C23.34 20.33 22.68 20.66 22 21 C13.8138342 15.47394223 6.49959511 9.46761991 0 2 C0 1.34 0 0.68 0 0 Z " fill="#F1C81C" transform="translate(701,435)"/>
<path d="M0 0 C0.33 0.66 0.66 1.32 1 2 C0.01 2.99 -0.98 3.98 -2 5 C1.87011389 5 4.97823352 3.77960931 8.625 2.55859375 C11 2 11 2 14 3 C12.99582031 3.35191406 11.99164062 3.70382813 10.95703125 4.06640625 C-5.41974455 9.70926636 -5.41974455 9.70926636 -19 20 C-19.66 19.67 -20.32 19.34 -21 19 C-14.59366245 11.58277649 -8.42941676 5.19295957 0 0 Z " fill="#EED31E" transform="translate(557,205)"/>
<path d="M0 0 C0.33 0.66 0.66 1.32 1 2 C1.99 2.66 2.98 3.32 4 4 C3.071875 4.8353125 3.071875 4.8353125 2.125 5.6875 C-0.11520442 7.82517224 -0.11520442 7.82517224 -0.875 10.4375 C-2.47632856 14.08497062 -4.84783522 15.60161376 -8 18 C-8 17.34 -8 16.68 -8 16 C-8.99 15.67 -9.98 15.34 -11 15 C-11 10.96459642 -9.34406117 8.17315033 -7 5 C-4.375 3.1875 -4.375 3.1875 -2 2 C-1.34 1.34 -0.68 0.68 0 0 Z " fill="#ECB31A" transform="translate(471,161)"/>
<path d="M0 0 C5.72419793 8.5862969 5.19103198 24.08110429 3.48828125 33.97265625 C3.32714844 34.64167969 3.16601562 35.31070313 3 36 C2.67 36 2.34 36 2 36 C1.67 31.05 1.34 26.1 1 21 C0.01 21.99 -0.98 22.98 -2 24 C-1.50311992 15.97591531 -0.98025099 7.98204378 0 0 Z " fill="#E9C51E" transform="translate(670,457)"/>
<path d="M0 0 C-9.72413793 9.20689655 -9.72413793 9.20689655 -16 11 C-18.234375 10.59375 -18.234375 10.59375 -20 10 C-19.01 9.67 -18.02 9.34 -17 9 C-16.67 7.35 -16.34 5.7 -16 4 C-19.63 3.67 -23.26 3.34 -27 3 C-27 2.67 -27 2.34 -27 2 C-26.38479492 1.94465088 -25.76958984 1.88930176 -25.13574219 1.83227539 C-22.34019004 1.57892518 -19.54510238 1.32076306 -16.75 1.0625 C-15.78191406 0.97548828 -14.81382812 0.88847656 -13.81640625 0.79882812 C-12.88183594 0.71181641 -11.94726562 0.62480469 -10.984375 0.53515625 C-9.69611816 0.41732788 -9.69611816 0.41732788 -8.38183594 0.29711914 C-6.01116121 0.0584429 -6.01116121 0.0584429 -3.81347656 -0.59594727 C-2 -1 -2 -1 0 0 Z " fill="#F3CD1C" transform="translate(658,178)"/>
<path d="M0 0 C0.66 0.33 1.32 0.66 2 1 C1.67 1.66 1.34 2.32 1 3 C4.465 2.505 4.465 2.505 8 2 C6.61620243 4.76759515 5.04729715 5.04633447 2.23046875 6.27734375 C1.25916016 6.70853516 0.28785156 7.13972656 -0.71289062 7.58398438 C-1.73576172 8.03064453 -2.75863281 8.47730469 -3.8125 8.9375 C-5.82105385 9.81696239 -7.82764684 10.7009198 -9.83203125 11.58984375 C-10.72639893 11.98034912 -11.6207666 12.37085449 -12.54223633 12.77319336 C-14.93876072 13.96943207 -16.917575 15.32441942 -19 17 C-19.66 16.67 -20.32 16.34 -21 16 C-14.60154234 9.8791327 -7.99241415 3.96845564 0 0 Z " fill="#F0CC1D" transform="translate(482,590)"/>
<path d="M0 0 C1 2 1 2 1 6 C-7.25 10.125 -7.25 10.125 -13 10 C-15 4.125 -15 4.125 -15 3 C-14.33613281 2.86722656 -13.67226563 2.73445312 -12.98828125 2.59765625 C-11.66376953 2.33275391 -11.66376953 2.33275391 -10.3125 2.0625 C-6.24023438 1.24804688 -6.24023438 1.24804688 -2.16796875 0.43359375 C-1.09482422 0.21896484 -1.09482422 0.21896484 0 0 Z " fill="#E8AE1A" transform="translate(597,521)"/>
<path d="M0 0 C0.33 0.66 0.66 1.32 1 2 C0.15136719 3.90771484 0.15136719 3.90771484 -1.203125 6.2109375 C-1.68910156 7.04367188 -2.17507813 7.87640625 -2.67578125 8.734375 C-3.19527344 9.60578125 -3.71476562 10.4771875 -4.25 11.375 C-4.75402344 12.23867187 -5.25804687 13.10234375 -5.77734375 13.9921875 C-8.02562529 17.81603642 -10.2849093 21.4859425 -13 25 C-12.25749403 20.91621717 -11.17076699 16.98060777 -10 13 C-11.32 13.33 -12.64 13.66 -14 14 C-14.33 15.98 -14.66 17.96 -15 20 C-15.66 20 -16.32 20 -17 20 C-17.33 20.66 -17.66 21.32 -18 22 C-17.68978386 15.02013687 -14.5048042 9.92708478 -11 4 C-10 6 -10 6 -10 9 C-8.68 9 -7.36 9 -6 9 C-4.19964598 7.02754217 -4.19964598 7.02754217 -2.75 4.5 C-2.22921875 3.6646875 -1.7084375 2.829375 -1.171875 1.96875 C-0.78515625 1.3190625 -0.3984375 0.669375 0 0 Z " fill="#F4CE1E" transform="translate(490,166)"/>
<path d="M0 0 C0.66 0.33 1.32 0.66 2 1 C0.35 2.32 -1.3 3.64 -3 5 C-1.02 5.66 0.96 6.32 3 7 C3 7.33 3 7.66 3 8 C1.865625 8.26554688 0.73125 8.53109375 -0.4375 8.8046875 C-1.95834048 9.16142786 -3.47917341 9.51820042 -5 9.875 C-5.74378906 10.04902344 -6.48757813 10.22304687 -7.25390625 10.40234375 C-12.18052359 11.55902782 -17.09313816 12.76213258 -22 14 C-19.87050402 11.71167306 -17.75830854 10.12164815 -15.05859375 8.5546875 C-13.93614258 7.89919922 -13.93614258 7.89919922 -12.79101562 7.23046875 C-12.01435547 6.78316406 -11.23769531 6.33585938 -10.4375 5.875 C-9.65697266 5.41996094 -8.87644531 4.96492187 -8.07226562 4.49609375 C-2.43105159 1.21552579 -2.43105159 1.21552579 0 0 Z " fill="#EEC41C" transform="translate(590,221)"/>
<path d="M0 0 C-0.40475235 7.15062486 -2.82523652 12.62704304 -6 19 C-6.66 18.67 -7.32 18.34 -8 18 C-8 14.33333333 -8 10.66666667 -8 7 C-8.99 7.33 -9.98 7.66 -11 8 C-10.67 7.01 -10.34 6.02 -10 5 C-8.66666667 4.66666667 -7.33333333 4.33333333 -6 4 C-5.67 3.01 -5.34 2.02 -5 1 C-3.28960011 0.41205004 -1.81522119 0 0 0 Z " fill="#E9AA19" transform="translate(498,145)"/>
<path d="M0 0 C-0.30276876 6.05537521 -3.27754038 9.51483458 -7 14 C-8.65 13.67 -10.3 13.34 -12 13 C-11.71125 12.443125 -11.4225 11.88625 -11.125 11.3125 C-9.93285557 9.0193504 -9.93285557 9.0193504 -9.25 6.5 C-7.45694695 2.91389389 -4.1774768 0 0 0 Z " fill="#D5A61D" transform="translate(592,138)"/>
<path d="M0 0 C1.32 0.33 2.64 0.66 4 1 C3.13288763 7.93689897 1.81587917 14.56370476 -1 21 C-3.29149186 17.40412047 -3.1143135 14.680018 -2.75 10.5 C-2.66234375 9.3759375 -2.5746875 8.251875 -2.484375 7.09375 C-2.04274692 4.27302871 -1.45084617 2.42600506 0 0 Z " fill="#EFB31B" transform="translate(476,178)"/>
<path d="M0 0 C0.66 0.33 1.32 0.66 2 1 C-0.97 2.65 -3.94 4.3 -7 6 C-5.96359375 5.77183594 -4.9271875 5.54367187 -3.859375 5.30859375 C-2.4896811 5.01776833 -1.11988388 4.72742921 0.25 4.4375 C0.93191406 4.28603516 1.61382813 4.13457031 2.31640625 3.97851562 C5.92220803 3.22584826 8.48600441 2.93833917 12 4 C7.90911833 5.16681635 3.81572819 6.32422226 -0.28027344 7.47290039 C-1.67390929 7.86516503 -3.06682078 8.26001256 -4.45898438 8.6574707 C-6.45779519 9.2276443 -8.45900927 9.78854146 -10.4609375 10.34765625 C-11.66540527 10.68804932 -12.86987305 11.02844238 -14.11083984 11.37915039 C-17 12 -17 12 -19 11 C-16.96028888 9.72593712 -14.91834736 8.45570798 -12.875 7.1875 C-12.30523437 6.83107422 -11.73546875 6.47464844 -11.1484375 6.10742188 C-7.52230064 3.86168939 -3.9127177 1.70685222 0 0 Z " fill="#F2D91F" transform="translate(524,603)"/>
<path d="M0 0 C3.84160316 5.76240474 4.23538321 11.29157865 4 18 C3.67 18 3.34 18 3 18 C2.34 16.02 1.68 14.04 1 12 C0.63648438 13.17755859 0.63648438 13.17755859 0.265625 14.37890625 C-1.64417474 20.3653939 -3.62366379 25.69432881 -7 31 C-7.33 30.34 -7.66 29.68 -8 29 C-7.13375 27.4221875 -7.13375 27.4221875 -6.25 25.8125 C-2.115663 18.01591292 -1.41575576 8.60038543 0 0 Z " fill="#EAD01E" transform="translate(713,521)"/>
<path d="M0 0 C0 3.99065846 -1.91567604 5.9705012 -4.25 9 C-5.03890625 10.051875 -5.8278125 11.10375 -6.640625 12.1875 C-8.65016151 14.58297399 -10.41102867 16.2898538 -13 18 C-13 16.68 -13 15.36 -13 14 C-14.32 14.33 -15.64 14.66 -17 15 C-13.65293006 11.53121842 -10.06047602 8.67570111 -6.21875 5.78125 C-3.98110052 3.98482718 -1.99110199 2.06350569 0 0 Z " fill="#ECCB1E" transform="translate(622,502)"/>
<path d="M0 0 C2.57619276 1.91315119 2.98395232 2.9016314 3.51171875 6.13671875 C3.56972656 7.30847656 3.62773438 8.48023438 3.6875 9.6875 C3.78611328 11.45673828 3.78611328 11.45673828 3.88671875 13.26171875 C3.92410156 14.16535156 3.96148438 15.06898438 4 16 C0.94433539 13.03693129 -1.97135828 9.98279839 -4.8125 6.8125 C-5.41707031 6.13832031 -6.02164063 5.46414063 -6.64453125 4.76953125 C-8 3 -8 3 -8 1 C-5 2 -5 2 -3 5 C-0.94074861 5.72382467 -0.94074861 5.72382467 1 6 C0.67 4.02 0.34 2.04 0 0 Z " fill="#E7BD1B" transform="translate(756,473)"/>
<path d="M0 0 C-0.99 0.495 -0.99 0.495 -2 1 C-1.67 1.99 -1.34 2.98 -1 4 C-2.65 4.33 -4.3 4.66 -6 5 C-5.67 4.01 -5.34 3.02 -5 2 C-6.17749808 3.17749808 -7.3341596 4.37774564 -8.4375 5.625 C-10 7 -10 7 -13 7 C-13 7.66 -13 8.32 -13 9 C-15.64 9.33 -18.28 9.66 -21 10 C-18.44735608 7.02191543 -15.46818428 5.73409214 -12 4 C-11.67 3.34 -11.34 2.68 -11 2 C-9.2578125 1.11328125 -9.2578125 1.11328125 -7.125 0.3125 C-6.42632813 0.04050781 -5.72765625 -0.23148438 -5.0078125 -0.51171875 C-3 -1 -3 -1 0 0 Z " fill="#EAAC1B" transform="translate(537,600)"/>
<path d="M0 0 C0 0.33 0 0.66 0 1 C-2.64 1.66 -5.28 2.32 -8 3 C-7.03578125 3.04898438 -6.0715625 3.09796875 -5.078125 3.1484375 C-3.81484375 3.22320312 -2.5515625 3.29796875 -1.25 3.375 C0.62945313 3.47941406 0.62945313 3.47941406 2.546875 3.5859375 C6 4 6 4 10 6 C0.1 6 -9.8 6 -20 6 C-13.76357429 1.32268072 -7.75954935 -0.49529038 0 0 Z " fill="#F3DA1E" transform="translate(619,245)"/>
<path d="M0 0 C7.95564189 0.35917119 18.6725238 1.23932422 24.87890625 6.6328125 C25.24886719 7.08398438 25.61882813 7.53515625 26 8 C24.98679687 7.67515625 24.98679687 7.67515625 23.953125 7.34375 C22.61507812 6.92609375 22.61507812 6.92609375 21.25 6.5 C20.36828125 6.2215625 19.4865625 5.943125 18.578125 5.65625 C15.79732471 4.83554715 15.79732471 4.83554715 12 5 C12 4.34 12 3.68 12 3 C11.01 3.495 11.01 3.495 10 4 C10.33 5.32 10.66 6.64 11 8 C8.525 7.01 8.525 7.01 6 6 C6 5.34 6 4.68 6 4 C5.38125 3.71125 4.7625 3.4225 4.125 3.125 C2 2 2 2 0 0 Z " fill="#F2C81B" transform="translate(602,198)"/>
<path d="M0 0 C10.51244416 -0.20612636 10.51244416 -0.20612636 14.3125 2.875 C16 5 16 5 16 8 C16.99 9.485 16.99 9.485 18 11 C14.14308372 9.14945936 10.45576705 7.00656926 6.75 4.875 C6.1003125 4.50246094 5.450625 4.12992187 4.78125 3.74609375 C3.18693776 2.83170879 1.5933921 1.91598744 0 1 C0 0.67 0 0.34 0 0 Z " fill="#E6AE1A" transform="translate(652,303)"/>
<path d="M0 0 C10.45584995 1.59496016 19.76980561 6.22084641 27 14 C24.5625 13.625 24.5625 13.625 22 13 C21.67 12.34 21.34 11.68 21 11 C19.68 11 18.36 11 17 11 C16.67 10.01 16.34 9.02 16 8 C13.90861544 6.76049958 13.90861544 6.76049958 11.4375 5.8125 C10.61121094 5.46832031 9.78492188 5.12414062 8.93359375 4.76953125 C8.29550781 4.51558594 7.65742187 4.26164062 7 4 C7.99 4.66 8.98 5.32 10 6 C9.67 6.66 9.34 7.32 9 8 C7.49712782 6.85793642 5.99776716 5.71125043 4.5 4.5625 C3.6646875 3.92441406 2.829375 3.28632813 1.96875 2.62890625 C1.3190625 2.09136719 0.669375 1.55382812 0 1 C0 0.67 0 0.34 0 0 Z " fill="#EFD21E" transform="translate(666,339)"/>
<path d="M0 0 C0.33 0.99 0.66 1.98 1 3 C-0.6875 6.1875 -0.6875 6.1875 -3 9 C-4.32 9 -5.64 9 -7 9 C-7 8.34 -7 7.68 -7 7 C-7.66 6.67 -8.32 6.34 -9 6 C-8.8125 3.625 -8.8125 3.625 -8 1 C-4.72494404 -0.89608503 -3.64512471 -1.21504157 0 0 Z " fill="#EBAB19" transform="translate(487,168)"/>
<path d="M0 0 C2.82613703 3.44024219 5.39131533 6.95122977 7.8125 10.6875 C8.43769531 11.64011719 9.06289063 12.59273438 9.70703125 13.57421875 C10.13371094 14.37472656 10.56039062 15.17523438 11 16 C10.67 16.66 10.34 17.32 10 18 C8.68 16.35 7.36 14.7 6 13 C5.01 13.99 4.02 14.98 3 16 C2.49411853 14.08487728 1.99551609 12.16783078 1.5 10.25 C1.2215625 9.18265625 0.943125 8.1153125 0.65625 7.015625 C0 4 0 4 0 0 Z " fill="#E9CA1D" transform="translate(671,414)"/>
<path d="M0 0 C7.92 0.66 15.84 1.32 24 2 C24 2.33 24 2.66 24 3 C16.08 3.495 16.08 3.495 8 4 C11.63 5.65 15.26 7.3 19 9 C14.27752895 10.18061776 13.57887543 9.62647741 9.5 7.3125 C8.5615625 6.79300781 7.623125 6.27351563 6.65625 5.73828125 C4 4 4 4 0 0 Z " fill="#EFD71E" transform="translate(697,307)"/>
<path d="M0 0 C7.65606218 -0.19355213 14.66258031 -0.3479743 22 2 C18.73086376 3.03115279 16.13958652 2.9638984 12.75 2.5625 C11.85796875 2.46066406 10.9659375 2.35882813 10.046875 2.25390625 C9.37140625 2.17011719 8.6959375 2.08632812 8 2 C8.66 2.66 9.32 3.32 10 4 C10 4.99 10 5.98 10 7 C7.33333333 6.33333333 4.66666667 5.66666667 2 5 C2.33 3.68 2.66 2.36 3 1 C2.01 0.67 1.02 0.34 0 0 Z " fill="#F6C51C" transform="translate(561,176)"/>
<path d="M0 0 C7.77449624 -0.31732638 15.32992235 0.88144701 23 2 C23 2.33 23 2.66 23 3 C22.02417969 3.13277344 21.04835938 3.26554688 20.04296875 3.40234375 C18.13451172 3.66724609 18.13451172 3.66724609 16.1875 3.9375 C14.29064453 4.19853516 14.29064453 4.19853516 12.35546875 4.46484375 C9.01678297 4.90392455 9.01678297 4.90392455 6 6 C5.7525 5.38125 5.505 4.7625 5.25 4.125 C3.79371361 1.64931313 2.62187494 1.04874998 0 0 Z " fill="#E8AA19" transform="translate(565,177)"/>
<path d="M0 0 C0.33 0.66 0.66 1.32 1 2 C0 5 0 5 -2 7 C-5.0390625 7.4140625 -5.0390625 7.4140625 -8.625 7.625 C-9.81351563 7.69976563 -11.00203125 7.77453125 -12.2265625 7.8515625 C-13.14179687 7.90054688 -14.05703125 7.94953125 -15 8 C-11.71956928 5.29911204 -9.01774606 3.40621112 -5 2 C-4.071875 1.62875 -3.14375 1.2575 -2.1875 0.875 C-1.465625 0.58625 -0.74375 0.2975 0 0 Z " fill="#EABC1C" transform="translate(630,536)"/>
<path d="M0 0 C0 0.99 0 1.98 0 3 C-1 4 -2 5 -3 6 C-3.71447643 8.10332891 -3.71447643 8.10332891 -4 10 C-3.34 10 -2.68 10 -2 10 C-2.66 11.32 -3.32 12.64 -4 14 C-5.98 13.34 -7.96 12.68 -10 12 C-9.8125 9.6875 -9.8125 9.6875 -9 7 C-6.6875 5.4375 -6.6875 5.4375 -4 4 C-2.63015802 2.70420353 -1.2848951 1.38007251 0 0 Z " fill="#E5AC1A" transform="translate(509,184)"/>
<path d="M0 0 C-0.70125 0.30292969 -1.4025 0.60585937 -2.125 0.91796875 C-7.54253741 3.31022372 -12.57174253 5.79825781 -17.44140625 9.1796875 C-17.95574219 9.45039063 -18.47007812 9.72109375 -19 10 C-19.66 9.67 -20.32 9.34 -21 9 C-21 8.01 -21 7.02 -21 6 C-20.2575 5.87625 -19.515 5.7525 -18.75 5.625 C-16.15128245 5.03438237 -14.23554414 4.43713552 -12 3 C-11.67 2.01 -11.34 1.02 -11 0 C-3.375 -1.125 -3.375 -1.125 0 0 Z " fill="#F0D01F" transform="translate(381,219)"/>
<path d="M0 0 C0.66 0 1.32 0 2 0 C1.43022658 2.52458117 0.8447278 5.04378339 0.25 7.5625 C0.09273438 8.26697266 -0.06453125 8.97144531 -0.2265625 9.69726562 C-1.43126057 14.72456335 -3.25711736 18.61484518 -6 23 C-6.33 22.34 -6.66 21.68 -7 21 C-6.26126762 19.01266506 -5.43432097 17.05765462 -4.5625 15.125 C-2.8360153 11.29568516 -2 9.25863952 -2 5 C-3.32 5.33 -4.64 5.66 -6 6 C-4.71034824 4.62437146 -3.37310707 3.29233607 -2 2 C-1.34 2 -0.68 2 0 2 C0 1.34 0 0.68 0 0 Z " fill="#F4DB20" transform="translate(499,141)"/>
<path d="M0 0 C0 3.16611388 -0.46280377 4.17751295 -1.9375 6.875 C-3.17873846 9.24503022 -3.99614427 10.97975743 -4.5 13.625 C-5.20470912 16.97236832 -7.02122734 19.25525082 -9 22 C-10 20 -10 20 -9.1796875 17.4609375 C-6.55553835 11.25411765 -3.76430505 5.59268179 0 0 Z " fill="#ECD220" transform="translate(522,199)"/>
<path d="M0 0 C-4.34195294 5.39001055 -9.51165454 6.96600028 -16 9 C-16 8.34 -16 7.68 -16 7 C-14.02 6.34 -12.04 5.68 -10 5 C-10 4.01 -10 3.02 -10 2 C-6.3558226 -0.4294516 -4.28758728 -0.16179575 0 0 Z " fill="#F1CC1B" transform="translate(702,230)"/>
<path d="M0 0 C0 4.95 0 9.9 0 15 C-0.33 15 -0.66 15 -1 15 C-1 12.36 -1 9.72 -1 7 C-1.66 7 -2.32 7 -3 7 C-3.33 8.65 -3.66 10.3 -4 12 C-5.09991843 8.70024471 -5.35996895 6.45570193 -5 3 C-1.9 0 -1.9 0 0 0 Z " fill="#E8AA1B" transform="translate(672,477)"/>
<path d="M0 0 C-0.57575664 3.35250701 -1.59306263 4.93818629 -4.0625 7.25 C-4.88427734 8.03117187 -4.88427734 8.03117187 -5.72265625 8.828125 C-6.14417969 9.21484375 -6.56570313 9.6015625 -7 10 C-7.66 9.67 -8.32 9.34 -9 9 C-8.1875 7.0625 -8.1875 7.0625 -7 5 C-6.01 4.67 -5.02 4.34 -4 4 C-6.31 4.33 -8.62 4.66 -11 5 C-11 4.34 -11 3.68 -11 3 C-9.54293274 2.49632243 -8.08429904 1.99717444 -6.625 1.5 C-5.81289063 1.2215625 -5.00078125 0.943125 -4.1640625 0.65625 C-2 0 -2 0 0 0 Z " fill="#EED21D" transform="translate(748,301)"/>
<path d="M0 0 C-3.89269663 2.59513109 -7.13772011 4.24290607 -11.875 3.625 C-12.57625 3.41875 -13.2775 3.2125 -14 3 C-14 2.01 -14 1.02 -14 0 C-8.97703996 -1.13016601 -5.02125926 -0.77916092 0 0 Z " fill="#DEAD19" transform="translate(582,562)"/>
<path d="M0 0 C-0.76461548 0.39324463 -0.76461548 0.39324463 -1.54467773 0.79443359 C-3.84543249 1.98197075 -6.14147295 3.17834961 -8.4375 4.375 C-9.23994141 4.7875 -10.04238281 5.2 -10.86914062 5.625 C-11.63291016 6.02460937 -12.39667969 6.42421875 -13.18359375 6.8359375 C-13.89056396 7.20251465 -14.59753418 7.5690918 -15.32592773 7.94677734 C-17.1680238 8.90361984 -17.1680238 8.90361984 -18 11 C-18.66 10.67 -19.32 10.34 -20 10 C-18.1875 7 -18.1875 7 -16 4 C-15.01 4 -14.02 4 -13 4 C-10.39852709 2.76344462 -7.89949349 1.38231116 -5.375 -0.00390625 C-3 -1 -3 -1 0 0 Z " fill="#EED61D" transform="translate(543,545)"/>
<path d="M0 0 C-4.82029598 4.94080338 -4.82029598 4.94080338 -8.1796875 5.109375 C-10.13690393 4.84469804 -12.07278469 4.43196205 -14 4 C-12 1 -12 1 -9.6875 0.234375 C-8.800625 0.07453125 -7.91375 -0.0853125 -7 -0.25 C-6.113125 -0.42015625 -5.22625 -0.5903125 -4.3125 -0.765625 C-2 -1 -2 -1 0 0 Z " fill="#DAB31C" transform="translate(658,178)"/>
<path d="M0 0 C4.26763313 2.2859534 7.47663624 5.23583857 10.8125 8.6875 C11.31458984 9.19861328 11.81667969 9.70972656 12.33398438 10.23632812 C13.56063509 11.48634362 14.78097491 12.7425468 16 14 C15.34 14.66 14.68 15.32 14 16 C13.484375 15.29875 12.96875 14.5975 12.4375 13.875 C10.03535335 11.04169883 7.53848428 8.7822699 4.68359375 6.4296875 C3.01990335 5.01690168 1.45110044 3.63193667 0 2 C0 1.34 0 0.68 0 0 Z " fill="#DBC119" transform="translate(679,378)"/>
<path d="M0 0 C2.97 0 5.94 0 9 0 C9 0.99 9 1.98 9 3 C6.23547967 4.38226016 3.9538637 4.09525387 0.875 4.0625 C-0.22070312 4.05347656 -1.31640625 4.04445313 -2.4453125 4.03515625 C-3.70988281 4.01775391 -3.70988281 4.01775391 -5 4 C-5 3.67 -5 3.34 -5 3 C-1.535 2.505 -1.535 2.505 2 2 C1.34 1.34 0.68 0.68 0 0 Z " fill="#F0D51C" transform="translate(762,415)"/>
<path d="M0 0 C-2.10016623 1.17441535 -4.20458755 2.33964012 -6.3125 3.5 C-6.90740234 3.83386719 -7.50230469 4.16773438 -8.11523438 4.51171875 C-10.95828844 6.06825114 -12.70660988 7 -16 7 C-14.78192862 5.84237881 -13.54998765 4.6993417 -12.3125 3.5625 C-11.62800781 2.92441406 -10.94351562 2.28632812 -10.23828125 1.62890625 C-6.66127167 -0.97425779 -4.17934264 -1.39311421 0 0 Z " fill="#F2DB20" transform="translate(477,599)"/>
<path d="M0 0 C0 1.32 0 2.64 0 4 C-2 5.75 -2 5.75 -4 7 C-4.66 6.67 -5.32 6.34 -6 6 C-6.625 3.4375 -6.625 3.4375 -7 1 C-4.53721199 -0.231394 -2.7204945 -0.07159196 0 0 Z " fill="#E9AE1A" transform="translate(609,516)"/>
<path d="M0 0 C2.31 0.66 4.62 1.32 7 2 C6.67 2.66 6.34 3.32 6 4 C1.45906828 5.41904116 -3.2943099 5.09226843 -8 5 C-8 4.67 -8 4.34 -8 4 C-6.35 4 -4.7 4 -3 4 C-3 3.34 -3 2.68 -3 2 C-2.01 2 -1.02 2 0 2 C0 1.34 0 0.68 0 0 Z " fill="#EDCC1C" transform="translate(728,292)"/>
<path d="M0 0 C0.99 0.66 1.98 1.32 3 2 C1.31326082 6.49797113 -0.81673892 10.72886302 -3 15 C-4.57156655 11.8568669 -3.11705576 9.634536 -2.0625 6.375 C-1.68222656 5.18648437 -1.30195313 3.99796875 -0.91015625 2.7734375 C-0.60980469 1.85820312 -0.30945313 0.94296875 0 0 Z " fill="#F3D71D" transform="translate(491,207)"/>
<path d="M0 0 C2.64 0 5.28 0 8 0 C8.33 0.99 8.66 1.98 9 3 C8.01 3.66 7.02 4.32 6 5 C6.66 5.33 7.32 5.66 8 6 C4.21032475 5.45861782 2.48587161 3.84099612 0 1 C0 0.67 0 0.34 0 0 Z " fill="#F0CB1C" transform="translate(301,258)"/>
<path d="M0 0 C0.66 0.33 1.32 0.66 2 1 C1.67 1.99 1.34 2.98 1 4 C2.98 3.67 4.96 3.34 7 3 C6.67 3.66 6.34 4.32 6 5 C-2.57142857 5.28571429 -2.57142857 5.28571429 -6 3 C-4.03533587 1.93224776 -2.03144641 0.93446535 0 0 Z " fill="#DC9D14" transform="translate(576,149)"/>
<path d="M0 0 C0.33 0.66 0.66 1.32 1 2 C3.12576782 2.46651207 3.12576782 2.46651207 5.5625 2.625 C6.38878906 2.69976562 7.21507812 2.77453125 8.06640625 2.8515625 C8.70449219 2.90054688 9.34257813 2.94953125 10 3 C9.67 3.66 9.34 4.32 9 5 C3.72 4.34 -1.56 3.68 -7 3 C-3 1 -3 1 0 0 Z " fill="#CFB62D" transform="translate(569,151)"/>
<path d="M0 0 C1.32 0 2.64 0 4 0 C3.8125 1.8125 3.8125 1.8125 3 4 C-1.17857143 7 -1.17857143 7 -4 7 C-4 5.68 -4 4.36 -4 3 C-2.68 2.34 -1.36 1.68 0 1 C0 0.67 0 0.34 0 0 Z " fill="#E5A819" transform="translate(366,219)"/>
<path d="M0 0 C-0.99 0.495 -0.99 0.495 -2 1 C-1.67 1.99 -1.34 2.98 -1 4 C-2.65 4.33 -4.3 4.66 -6 5 C-5.67 4.01 -5.34 3.02 -5 2 C-6.65 2.66 -8.3 3.32 -10 4 C-10 3.34 -10 2.68 -10 2 C-3.375 -1.125 -3.375 -1.125 0 0 Z " fill="#F4CB1B" transform="translate(537,600)"/>
<path d="M0 0 C4.52615993 3.67832017 8.39424999 7.41086363 12 12 C11.01 12.33 10.02 12.66 9 13 C8.443125 12.113125 7.88625 11.22625 7.3125 10.3125 C5.75360318 7.94901127 4.29875982 6.29875982 2.25 4.25 C1.5075 3.5075 0.765 2.765 0 2 C0 1.34 0 0.68 0 0 Z " fill="#D6BD1B" transform="translate(726,387)"/>
<path d="M0 0 C-3.01490557 2.00993705 -5.2149927 2.72623341 -8.6875 3.625 C-9.68136719 3.88539063 -10.67523437 4.14578125 -11.69921875 4.4140625 C-12.45847656 4.60742188 -13.21773437 4.80078125 -14 5 C-9.48166612 0.36447591 -6.58778358 -1.68524696 0 0 Z " fill="#EBD220" transform="translate(582,230)"/>
<path d="M0 0 C0.33 1.32 0.66 2.64 1 4 C-3.455 6.97 -3.455 6.97 -8 10 C-8.66 9.67 -9.32 9.34 -10 9 C-6.7 6.03 -3.4 3.06 0 0 Z " fill="#181103" transform="translate(358,231)"/>
<path d="M0 0 C2.66315194 2.66315194 2.94426493 4.65344068 3.09765625 8.359375 C3.08605469 9.14828125 3.07445312 9.9371875 3.0625 10.75 C3.05347656 11.54921875 3.04445313 12.3484375 3.03515625 13.171875 C3.01775391 14.07679688 3.01775391 14.07679688 3 15 C2.67 15 2.34 15 2 15 C1.67 13.35 1.34 11.7 1 10 C0.67 10 0.34 10 0 10 C0 6.7 0 3.4 0 0 Z " fill="#F2DC20" transform="translate(693,489)"/>
<path d="M0 0 C0.33 0.66 0.66 1.32 1 2 C1.99 2.66 2.98 3.32 4 4 C2.35 5.32 0.7 6.64 -1 8 C-1.99 6.68 -2.98 5.36 -4 4 C-2.68 2.68 -1.36 1.36 0 0 Z " fill="#ECAB1A" transform="translate(471,161)"/>
<path d="M0 0 C-0.5625 1.9375 -0.5625 1.9375 -2 4 C-5.625 4.75 -5.625 4.75 -9 5 C-9 4.01 -9 3.02 -9 2 C-5.5647952 -0.29013653 -4.014669 -0.17842973 0 0 Z " fill="#E5B71A" transform="translate(480,595)"/>
<path d="M0 0 C1.5625 1.8125 1.5625 1.8125 3 4 C2.67 4.99 2.34 5.98 2 7 C1.01 7 0.02 7 -1 7 C-1 5.68 -1 4.36 -1 3 C-2.65 3.33 -4.3 3.66 -6 4 C-4.60804085 1.2160817 -2.84424221 1.02101003 0 0 Z " fill="#EDBB1C" transform="translate(598,519)"/>
<path d="M0 0 C-1.28524261 0.86380259 -2.57842419 1.71580369 -3.875 2.5625 C-4.59429687 3.03816406 -5.31359375 3.51382813 -6.0546875 4.00390625 C-6.69664062 4.33261719 -7.33859375 4.66132813 -8 5 C-8.66 4.67 -9.32 4.34 -10 4 C-9.67 2.68 -9.34 1.36 -9 0 C-2.25 -1.125 -2.25 -1.125 0 0 Z " fill="#EFC91A" transform="translate(382,232)"/>
<path d="M0 0 C2.32590854 3.63423209 2.16265833 6.77088331 2 11 C0.35 9.35 -1.3 7.7 -3 6 C-2.67 5.34 -2.34 4.68 -2 4 C-1.67 4.33 -1.34 4.66 -1 5 C-0.67 3.35 -0.34 1.7 0 0 Z " fill="#F8DA21" transform="translate(758,478)"/>
<path d="M0 0 C2.95409701 1.37154504 5.44008376 2.98863724 8 5 C7.01 6.485 7.01 6.485 6 8 C4.99403703 7.0479279 3.99538437 6.08812654 3 5.125 C2.443125 4.59132813 1.88625 4.05765625 1.3125 3.5078125 C0 2 0 2 0 0 Z " fill="#E5CB1D" transform="translate(701,435)"/>
<path d="M0 0 C0.66 0 1.32 0 2 0 C3.2890625 1.53125 3.2890625 1.53125 4.625 3.5 C5.07101562 4.1496875 5.51703125 4.799375 5.9765625 5.46875 C6.31429687 5.9740625 6.65203125 6.479375 7 7 C6.34 8.32 5.68 9.64 5 11 C3.35 7.37 1.7 3.74 0 0 Z " fill="#F2DB20" transform="translate(672,371)"/>
<path d="M0 0 C2.31 0.33 4.62 0.66 7 1 C6.67 1.99 6.34 2.98 6 4 C3.03 4 0.06 4 -3 4 C-2.01 2.68 -1.02 1.36 0 0 Z " fill="#E8AA1A" transform="translate(562,180)"/>
<path d="M0 0 C3.3 0.33 6.6 0.66 10 1 C10 1.33 10 1.66 10 2 C5.59085217 3.10228696 1.51617599 3.07654536 -3 3 C-2.01 2.67 -1.02 2.34 0 2 C0 1.34 0 0.68 0 0 Z " fill="#F6D61C" transform="translate(558,573)"/>
<path d="M0 0 C-2 2 -2 2 -5.625 2.125 C-6.73875 2.08375 -7.8525 2.0425 -9 2 C-8.67 1.01 -8.34 0.02 -8 -1 C-4.37673261 -2.2077558 -3.35853631 -1.54311128 0 0 Z " fill="#E6A918" transform="translate(766,416)"/>
<path d="M0 0 C0.33 0.99 0.66 1.98 1 3 C-0.98 3.66 -2.96 4.32 -5 5 C-5.33 4.01 -5.66 3.02 -6 2 C-4.02 1.34 -2.04 0.68 0 0 Z " fill="#0B0C0B" transform="translate(356,736)"/>
<path d="M0 0 C0.99 0.33 1.98 0.66 3 1 C0.53058944 3.59937954 -2.18060883 5.79020692 -5 8 C-5 5 -5 5 -2.5 2.3125 C-1.675 1.549375 -0.85 0.78625 0 0 Z " fill="#2C2C2C" transform="translate(490,538)"/>
<path d="M0 0 C1.65 0 3.3 0 5 0 C5 0.99 5 1.98 5 3 C5.639375 3.28875 6.27875 3.5775 6.9375 3.875 C9 5 9 5 10 7 C6.42032008 5.34784004 3.22017048 3.26875648 0 1 C0 0.67 0 0.34 0 0 Z " fill="#F4D31D" transform="translate(660,307)"/>
<path d="M0 0 C1.65 0 3.3 0 5 0 C5.33 0.66 5.66 1.32 6 2 C4.03533587 3.06775224 2.03144641 4.06553465 0 5 C-0.66 4.67 -1.32 4.34 -2 4 C-1.34 2.68 -0.68 1.36 0 0 Z " fill="#E7AC18" transform="translate(548,211)"/>
<path d="M0 0 C0.66 0 1.32 0 2 0 C1.67 1.98 1.34 3.96 1 6 C0.01 5.67 -0.98 5.34 -2 5 C-4.14255793 5.38932856 -4.14255793 5.38932856 -6 6 C-4.71034824 4.62437146 -3.37310707 3.29233607 -2 2 C-1.34 2 -0.68 2 0 2 C0 1.34 0 0.68 0 0 Z " fill="#E8C81F" transform="translate(499,141)"/>
<path d="M0 0 C2 1 2 1 3 3 C-1.455 4.485 -1.455 4.485 -6 6 C-4 4 -2 2 0 0 Z " fill="#F6CD1E" transform="translate(693,564)"/>
<path d="M0 0 C0.33 0.66 0.66 1.32 1 2 C0.01 2.99 -0.98 3.98 -2 5 C-1.67 5.99 -1.34 6.98 -1 8 C-2.32 7.67 -3.64 7.34 -5 7 C-3.75023244 3.34683329 -3.32901247 2.21934164 0 0 Z " fill="#F4C31D" transform="translate(539,538)"/>
<path d="M0 0 C6.625 -0.25 6.625 -0.25 10 2 C7.25 2.6875 7.25 2.6875 4 3 C1.625 1.5625 1.625 1.5625 0 0 Z " fill="#F4DA21" transform="translate(652,303)"/>
<path d="M0 0 C2.97 0.33 5.94 0.66 9 1 C8.67 1.66 8.34 2.32 8 3 C5.125 3.1875 5.125 3.1875 2 3 C1.34 2.01 0.68 1.02 0 0 Z " fill="#F3C91B" transform="translate(602,198)"/>
<path d="M0 0 C0.66 0 1.32 0 2 0 C1.71640113 1.4391134 1.42278601 2.87625518 1.125 4.3125 C0.88136719 5.51326172 0.88136719 5.51326172 0.6328125 6.73828125 C0 9 0 9 -2 12 C-1.85962479 10.18706911 -1.71255111 8.3746557 -1.5625 6.5625 C-1.48128906 5.55316406 -1.40007812 4.54382813 -1.31640625 3.50390625 C-1 1 -1 1 0 0 Z " fill="#E9A71B" transform="translate(460,181)"/>
</svg>
